<svg xmlns="http://www.w3.org/2000/svg" width="54" height="50" viewBox="0 0 54 50">
  <g id="Group_116" data-name="Group 116" transform="translate(-1052 -691)">
    <rect id="Rectangle_114" data-name="Rectangle 114" width="54" height="50" transform="translate(1052 691)" fill="#fff" opacity="0"/>
    <path id="Icon_awesome-dribbble-square" data-name="Icon awesome-dribbble-square" d="M5.992,15.284a9.108,9.108,0,0,1,5.029-6.358,58.6,58.6,0,0,1,3.368,5.248,33.843,33.843,0,0,1-8.4,1.109ZM20.9,10.355a9.047,9.047,0,0,0-8.145-2.033,48.866,48.866,0,0,1,3.388,5.315A10.3,10.3,0,0,0,20.9,10.355ZM9.307,24.306a9.062,9.062,0,0,0,9.121,1.2,37.481,37.481,0,0,0-1.94-6.883A12.765,12.765,0,0,0,9.307,24.306Zm6.564-7.188c-.226-.518-.478-1.03-.737-1.541a33.245,33.245,0,0,1-9.327,1.289c0,.093-.007.186-.007.279a9.063,9.063,0,0,0,2.332,6.072A14.082,14.082,0,0,1,15.871,17.118ZM18.19,18.2a38.822,38.822,0,0,1,1.76,6.471,9.089,9.089,0,0,0,3.893-6.085A13.247,13.247,0,0,0,18.19,18.2Zm-1.349-3.215c.319.651.551,1.183.8,1.78a21.16,21.16,0,0,1,6.324.292A8.993,8.993,0,0,0,21.91,11.4a12.156,12.156,0,0,1-5.069,3.581ZM29.762,5.439V28.823a3.19,3.19,0,0,1-3.189,3.189H3.189A3.19,3.19,0,0,1,0,28.823V5.439A3.19,3.19,0,0,1,3.189,2.25H26.573A3.19,3.19,0,0,1,29.762,5.439ZM25.51,17.131A10.629,10.629,0,1,0,14.881,27.76,10.643,10.643,0,0,0,25.51,17.131Z" transform="translate(1063.238 699.869)"/>
  </g>
</svg>
