<svg xmlns="http://www.w3.org/2000/svg" width="54" height="50" viewBox="0 0 54 50">
  <g id="Group_113" data-name="Group 113" transform="translate(-814 -691)">
    <rect id="Rectangle_111" data-name="Rectangle 111" width="54" height="50" transform="translate(814 691)" fill="#fff" opacity="0"/>
    <path id="Icon_awesome-flickr" data-name="Icon awesome-flickr" d="M26.573,2.25H3.189A3.19,3.19,0,0,0,0,5.439V28.823a3.19,3.19,0,0,0,3.189,3.189H26.573a3.19,3.19,0,0,0,3.189-3.189V5.439A3.19,3.19,0,0,0,26.573,2.25ZM9.6,21.316A4.219,4.219,0,1,1,13.818,17.1,4.216,4.216,0,0,1,9.6,21.316Zm10.563,0A4.219,4.219,0,1,1,24.381,17.1,4.216,4.216,0,0,1,20.163,21.316Z" transform="translate(827 699.869)"/>
  </g>
</svg>
