<svg xmlns="http://www.w3.org/2000/svg" xmlns:xlink="http://www.w3.org/1999/xlink" width="600" height="400" viewBox="0 0 600 400">
  <defs>
    <linearGradient id="linear-gradient" y1="0.24" x2="0.5" y2="1" gradientUnits="objectBoundingBox">
      <stop offset="0" stop-color="#301fff"/>
      <stop offset="1" stop-color="#9200ff"/>
    </linearGradient>
    <filter id="Ellipse_2" x="229" y="91.854" width="71" height="71" filterUnits="userSpaceOnUse">
      <feOffset dx="4" dy="5" input="SourceAlpha"/>
      <feGaussianBlur stdDeviation="5" result="blur"/>
      <feFlood flood-opacity="0.161"/>
      <feComposite operator="in" in2="blur"/>
      <feComposite in="SourceGraphic"/>
    </filter>
    <filter id="Ellipse_4" x="229" y="91.854" width="71" height="71" filterUnits="userSpaceOnUse">
      <feOffset dx="4" dy="5" input="SourceAlpha"/>
      <feGaussianBlur stdDeviation="5" result="blur-2"/>
      <feFlood flood-opacity="0.161"/>
      <feComposite operator="in" in2="blur-2"/>
      <feComposite in="SourceGraphic"/>
    </filter>
  </defs>
  <g id="Group_79" data-name="Group 79" transform="translate(-436 -252.107)" style="isolation: isolate">
    <g id="Group_78" data-name="Group 78" transform="translate(436 252)" style="isolation: isolate">
      <rect id="Rectangle_97" data-name="Rectangle 97" width="600" height="400" transform="translate(0 0.107)" fill="#3bff00"/>
    </g>
    <g id="Group_76" data-name="Group 76" transform="translate(663.88 283.107)">
      <g id="Component_4_3" data-name="Component 4 – 3" transform="translate(0 -0.146)">
        <g id="ChatBoxBG" transform="translate(0.12)">
          <rect id="ChatBoxBG-2" data-name="ChatBoxBG" width="334" height="339" rx="20" transform="translate(0 0)" fill="#fff"/>
        </g>
        <g id="Chatboxhead" transform="translate(0 0.146)">
          <rect id="HeaderBox" width="334.145" height="36.476"/>
          <text id="BI_Analyst" data-name="BI Analyst" transform="translate(33.821 7.244)" fill="#fff" font-size="15" font-family="SegoeUI, Segoe UI"><tspan x="0" y="16">BI Analyst</tspan></text>
          <g id="Cross" transform="translate(304.456 12.655)">
            <line id="Line_2" data-name="Line 2" x2="11.911" y2="11.166" transform="matrix(0.999, 0.052, -0.052, 0.999, 0.584, 0.068)" fill="none" stroke="#fff" stroke-width="4"/>
            <line id="Line_3" data-name="Line 3" x2="11.911" y2="11.166" transform="translate(11.822) rotate(90)" fill="none" stroke="#fff" stroke-width="4"/>
          </g>
          <g id="Icon_ionic-md-expand" data-name="Icon ionic-md-expand" transform="translate(272.051 11.911)">
            <path id="Path_32" data-name="Path 32" d="M26.52,7.18V11.2H29.2V4.5H22.5V7.18Z" transform="translate(-16.545 -4.5)" fill="#fff"/>
            <path id="Path_34" data-name="Path 34" d="M7.18,26.52V22.5H4.5v6.7h6.7V26.52Z" transform="translate(-4.5 -16.545)" fill="#fff"/>
          </g>
        </g>
        <g id="TextBox" transform="translate(0.178 254.363)">
          <rect id="Rectangle_94" data-name="Rectangle 94" width="334" height="85" transform="translate(-0.058 -0.363)" fill="#fff"/>
          <line id="Line_6" data-name="Line 6" x1="334.242" transform="translate(0.097)" fill="none" stroke="#ddd" stroke-width="1"/>
          <text id="Type_your_message_here" data-name="Type your message here" transform="translate(21.942 32.637)" fill="#707070" font-size="20" font-family="SegoeUI, Segoe UI" opacity="0.726"><tspan x="0" y="22">Type your message </tspan></text>
          <path id="Icon_metro-attachment" data-name="Icon metro-attachment" d="M13.638,7.141,12.6,6.106,7.425,11.283a2.2,2.2,0,0,0,3.106,3.106l6.213-6.212A3.661,3.661,0,0,0,11.568,3L5.044,9.523l-.014.013a5.105,5.105,0,0,0,7.221,7.22l.013-.014h0l4.453-4.452-1.036-1.035-4.453,4.452-.013.013a3.641,3.641,0,0,1-5.15-5.148l.014-.013h0L12.6,4.036A2.2,2.2,0,1,1,15.71,7.141L9.5,13.353a.732.732,0,0,1-1.036-1.035l5.178-5.177Z" transform="translate(271.997 36.911)" fill="#707070"/>
        </g>
      </g>
      <g id="Bot-type" transform="translate(12.12 70.854)">
        <g id="Component_2_2" data-name="Component 2 – 2">
          <g id="ChatBot" transform="translate(0 0)">
            <g transform="matrix(1, 0, 0, 1, -240, -101.85)" filter="url(#Ellipse_2)">
              <circle id="Ellipse_2-2" data-name="Ellipse 2" cx="20.5" cy="20.5" r="20.5" transform="translate(240 101.85)" fill="url(#linear-gradient)"/>
            </g>
            <g transform="matrix(1, 0, 0, 1, -240, -101.85)" filter="url(#Ellipse_4)">
              <circle id="Ellipse_4-2" data-name="Ellipse 4" cx="20.5" cy="20.5" r="20.5" transform="translate(240 101.85)" fill="url(#linear-gradient)"/>
            </g>
          </g>
          <g id="Group_75" data-name="Group 75" transform="translate(9.291 13.515)">
            <rect id="Rectangle_93" data-name="Rectangle 93" width="22" height="14" rx="7" transform="translate(-0.291 0.485)" fill="#fff"/>
            <circle id="Ellipse_24" data-name="Ellipse 24" cx="1.5" cy="1.5" r="1.5" transform="translate(4.709 5.485)" fill="#4a16fa"/>
            <circle id="Ellipse_25" data-name="Ellipse 25" cx="1.5" cy="1.5" r="1.5" transform="translate(13.709 5.485)" fill="#4a16fa"/>
          </g>
        </g>
        <g id="Component" transform="translate(53 0)">
          <rect id="Rectangle_95" data-name="Rectangle 95" width="203" height="90" rx="13" fill="#ededed"/>
          <text id="Hi_Joe_Decatur_Sales_Data_is_available_" data-name="Hi Joe! Decatur Sales Data is available!" transform="translate(19 20)" font-size="17" font-family="SegoeUI, Segoe UI"><tspan x="0" y="18">Hi Joe! Decatur Sales </tspan><tspan x="0" y="40">Data is available!</tspan></text>
        </g>
      </g>
      <g id="Component_3" data-name="Component 3" transform="translate(65.12 171.854)">
        <rect id="Rectangle_96" data-name="Rectangle 96" width="203" height="34" rx="17" fill="#0baa0b"/>
        <text id="Moe_s_Report_-_View_Dashboard" data-name="Moe’s Report - View Dashboard" transform="translate(18 8)" fill="#fff" font-size="12" font-family="SegoeUI, Segoe UI"><tspan x="0" y="13">Moe’s Report - View Dashboard</tspan></text>
        <text id="Download_Report" data-name="Download Report" transform="translate(42 50)" fill="#707070" font-size="15" font-family="SegoeUI, Segoe UI"><tspan x="0" y="16">Download Report</tspan></text>
        <path id="Icon_simple-microsoftexcel" data-name="Icon simple-microsoftexcel" d="M14.611,2.117H9.623V3.04h1.47V4.5H9.623v.465h1.47V6.428H9.623v.478h1.47V8.289H9.623v.554h1.47v1.386H9.623v.554h1.47v1.394H9.623v1.017h4.988c.079-.024.145-.117.2-.278a1.36,1.36,0,0,0,.08-.395V2.286c0-.079-.027-.127-.08-.144A.682.682,0,0,0,14.611,2.117Zm-.647,10.058H11.571V10.783h2.393v1.394Zm0-1.947H11.571V8.842h2.393Zm0-1.94H11.571V6.912h2.393V8.289Zm0-1.861H11.571V4.967h2.393V6.428h0Zm0-1.935H11.571V3.041h2.393V4.492ZM0,1.887V13.426l8.784,1.519V.329L0,1.892Zm5.207,8.729q-.05-.136-.47-1.156c-.279-.68-.447-1.076-.5-1.189H4.225l-.942,2.243-1.259-.085L3.517,7.637,2.149,4.846l1.284-.068.849,2.184H4.3l.958-2.283L6.584,4.6,5,7.616,6.633,10.7l-1.426-.084Z" transform="translate(0.519 52.086)" fill="#707070"/>
      </g>
    </g>
  </g>
</svg>
