<svg xmlns="http://www.w3.org/2000/svg" width="54" height="50" viewBox="0 0 54 50">
  <g id="Group_115" data-name="Group 115" transform="translate(-975 -691)">
    <rect id="Rectangle_113" data-name="Rectangle 113" width="54" height="50" transform="translate(975 691)" fill="#fff" opacity="0"/>
    <path id="Icon_awesome-instagram" data-name="Icon awesome-instagram" d="M14.879,9.487a7.629,7.629,0,1,0,7.629,7.629A7.617,7.617,0,0,0,14.879,9.487Zm0,12.589a4.96,4.96,0,1,1,4.96-4.96,4.969,4.969,0,0,1-4.96,4.96Zm9.72-12.9A1.779,1.779,0,1,1,22.82,7.4,1.775,1.775,0,0,1,24.6,9.174Zm5.053,1.806a8.806,8.806,0,0,0-2.4-6.235,8.864,8.864,0,0,0-6.235-2.4c-2.457-.139-9.82-.139-12.277,0A8.851,8.851,0,0,0,2.5,4.739,8.835,8.835,0,0,0,.1,10.974C-.04,13.43-.04,20.794.1,23.251a8.806,8.806,0,0,0,2.4,6.235,8.875,8.875,0,0,0,6.235,2.4c2.457.139,9.82.139,12.277,0a8.806,8.806,0,0,0,6.235-2.4,8.864,8.864,0,0,0,2.4-6.235c.139-2.457.139-9.813,0-12.27ZM26.479,25.886a5.021,5.021,0,0,1-2.828,2.828c-1.959.777-6.606.6-8.771.6s-6.819.173-8.771-.6A5.021,5.021,0,0,1,3.28,25.886c-.777-1.959-.6-6.606-.6-8.771s-.173-6.819.6-8.771A5.021,5.021,0,0,1,6.108,5.516c1.959-.777,6.606-.6,8.771-.6s6.819-.173,8.771.6a5.021,5.021,0,0,1,2.828,2.828c.777,1.959.6,6.606.6,8.771S27.255,23.934,26.479,25.886Z" transform="translate(984.979 699.881)"/>
  </g>
</svg>
