<svg xmlns="http://www.w3.org/2000/svg" width="54" height="50" viewBox="0 0 54 50">
  <g id="Group_114" data-name="Group 114" transform="translate(-894 -691)">
    <rect id="Rectangle_112" data-name="Rectangle 112" width="54" height="50" transform="translate(894 691)" fill="#fff" opacity="0"/>
    <path id="Icon_ionic-logo-linkedin" data-name="Icon ionic-logo-linkedin" d="M31.882,4.5H7.043A2.428,2.428,0,0,0,4.5,6.818V31.712a2.619,2.619,0,0,0,2.543,2.551H31.874a2.486,2.486,0,0,0,2.388-2.551V6.818A2.282,2.282,0,0,0,31.882,4.5ZM13.726,29.308H9.462V16.051h4.264ZM11.741,14.036H11.71a2.188,2.188,0,0,1-2.248-2.287,2.2,2.2,0,0,1,2.3-2.287,2.2,2.2,0,0,1,2.279,2.287A2.2,2.2,0,0,1,11.741,14.036ZM29.308,29.308H25.044V22.06c0-1.737-.62-2.923-2.163-2.923A2.333,2.333,0,0,0,20.7,20.711a2.871,2.871,0,0,0-.147,1.047v7.551H16.284V16.051h4.264V17.9a4.316,4.316,0,0,1,3.845-2.155c2.8,0,4.915,1.845,4.915,5.822v7.745Z" transform="translate(901.556 697.619)"/>
  </g>
</svg>
