<svg xmlns="http://www.w3.org/2000/svg" width="15.917" height="15.917" viewBox="0 0 15.917 15.917">
  <path id="Icon_zocial-dribbble" data-name="Icon zocial-dribbble" d="M0,7.959a7.8,7.8,0,0,1,1.066-4,7.9,7.9,0,0,1,2.9-2.9A7.8,7.8,0,0,1,7.959,0a7.8,7.8,0,0,1,4,1.066,7.9,7.9,0,0,1,2.9,2.9,7.8,7.8,0,0,1,1.066,4,7.8,7.8,0,0,1-1.066,4,7.9,7.9,0,0,1-2.9,2.9,7.8,7.8,0,0,1-4,1.066,7.8,7.8,0,0,1-4-1.066,7.9,7.9,0,0,1-2.9-2.9A7.8,7.8,0,0,1,0,7.959Zm1.321,0a6.418,6.418,0,0,0,1.671,4.377A9.109,9.109,0,0,1,5.412,9.487a7.913,7.913,0,0,1,3.231-1.7q-.239-.557-.462-1a19.34,19.34,0,0,1-5.921.875q-.621,0-.923-.016,0,.064-.008.159t-.008.159Zm.207-1.639q.35.032,1.035.032a17.469,17.469,0,0,0,5.046-.716A16.118,16.118,0,0,0,4.95,2.053,6.461,6.461,0,0,0,2.793,3.82,6.8,6.8,0,0,0,1.528,6.319ZM3.9,13.2a6.5,6.5,0,0,0,6.4.955A23.373,23.373,0,0,0,9.057,8.882,6.788,6.788,0,0,0,6.1,10.49,9.029,9.029,0,0,0,3.9,13.2ZM6.335,1.544A16.915,16.915,0,0,1,8.93,5.157a7.927,7.927,0,0,0,3.263-2.308A6.452,6.452,0,0,0,7.959,1.321a6.109,6.109,0,0,0-1.624.223ZM9.5,6.287q.239.509.541,1.289,1.178-.111,2.563-.111.987,0,1.958.048A6.39,6.39,0,0,0,13,3.661,7.876,7.876,0,0,1,9.5,6.287Zm.939,2.4a22.847,22.847,0,0,1,1.1,4.839,6.641,6.641,0,0,0,2.053-2.085,6.429,6.429,0,0,0,.955-2.754q-1.162-.08-2.117-.08Q11.556,8.611,10.442,8.691Z"/>
</svg>
