<svg xmlns="http://www.w3.org/2000/svg" width="15.995" height="15.992" viewBox="0 0 15.995 15.992">
  <path id="Icon_awesome-instagram" data-name="Icon awesome-instagram" d="M7.994,6.133a4.1,4.1,0,1,0,4.1,4.1A4.094,4.094,0,0,0,7.994,6.133Zm0,6.766a2.666,2.666,0,1,1,2.666-2.666A2.67,2.67,0,0,1,7.994,12.9Zm5.224-6.933a.956.956,0,1,1-.956-.956A.954.954,0,0,1,13.218,5.966Zm2.716.971a4.733,4.733,0,0,0-1.292-3.351,4.764,4.764,0,0,0-3.351-1.292c-1.32-.075-5.278-.075-6.6,0A4.757,4.757,0,0,0,1.343,3.582,4.748,4.748,0,0,0,.051,6.933c-.075,1.32-.075,5.278,0,6.6a4.733,4.733,0,0,0,1.292,3.351,4.77,4.77,0,0,0,3.351,1.292c1.32.075,5.278.075,6.6,0a4.733,4.733,0,0,0,3.351-1.292,4.764,4.764,0,0,0,1.292-3.351c.075-1.32.075-5.274,0-6.594Zm-1.706,8.011a2.7,2.7,0,0,1-1.52,1.52c-1.053.417-3.551.321-4.714.321s-3.665.093-4.714-.321a2.7,2.7,0,0,1-1.52-1.52c-.417-1.053-.321-3.551-.321-4.714S1.346,6.569,1.76,5.52A2.7,2.7,0,0,1,3.28,4c1.053-.417,3.551-.321,4.714-.321s3.665-.093,4.714.321a2.7,2.7,0,0,1,1.52,1.52c.417,1.053.321,3.551.321,4.714S14.646,13.9,14.228,14.947Z" transform="translate(0.005 -2.238)"/>
</svg>
