<svg xmlns="http://www.w3.org/2000/svg" xmlns:xlink="http://www.w3.org/1999/xlink" width="993" height="498" viewBox="0 0 993 498">
  <defs>
    <style>
      .cls-1 {
        clip-path: url(#clip-Artboard_3);
      }

      .cls-2 {
        fill: #ffdc48;
      }

      .cls-3, .cls-9 {
        font-size: 17px;
      }

      .cls-3, .cls-8, .cls-9 {
        font-family: FuturaLT-Book, Futura LT;
      }

      .cls-4 {
        fill: #e9fad2;
      }

      .cls-5 {
        fill: #3aedc7;
      }

      .cls-6 {
        fill: #ffd8d5;
      }

      .cls-7 {
        fill: #e7e3ff;
      }

      .cls-8, .cls-9 {
        fill: #696666;
      }

      .cls-8 {
        font-size: 14px;
      }

      .cls-10 {
        fill: #eaf7fd;
      }

      .cls-11 {
        fill: none;
        stroke: #eae8e8;
      }

      .cls-12 {
        fill: #fcfcfc;
      }
    </style>
    <clipPath id="clip-Artboard_3">
      <rect width="993" height="498"/>
    </clipPath>
  </defs>
  <g id="Artboard_3" data-name="Artboard – 3" class="cls-1">
    <rect class="cls-12" width="993" height="498"/>
    <rect id="Rectangle_451" data-name="Rectangle 451" class="cls-2" width="116" height="22" rx="11" transform="translate(317 118)"/>
    <text id="Product" class="cls-3" transform="translate(34 38)"><tspan x="0" y="17">Product</tspan></text>
    <rect id="Rectangle_464" data-name="Rectangle 464" class="cls-4" width="110" height="22" rx="11" transform="translate(317 168)"/>
    <text id="Users" class="cls-3" transform="translate(224 38)"><tspan x="0" y="17">Users</tspan></text>
    <rect id="Rectangle_456" data-name="Rectangle 456" class="cls-5" width="118" height="21" rx="10.5" transform="translate(361 144)"/>
    <rect id="Rectangle_452" data-name="Rectangle 452" class="cls-6" width="44" height="21" rx="10.5" transform="translate(317 144)"/>
    <rect id="Rectangle_466" data-name="Rectangle 466" class="cls-7" width="39" height="21" rx="10.5" transform="translate(317 225)"/>
    <text id="Features" class="cls-3" transform="translate(321 38)"><tspan x="0" y="17">Feature</tspan></text>
    <rect id="Rectangle_465" data-name="Rectangle 465" class="cls-7" width="39" height="21" rx="10.5" transform="translate(441 118)"/>
    <text id="Pros" class="cls-3" transform="translate(584 38)"><tspan x="0" y="17">Pros</tspan></text>
    <text id="Cons" class="cls-3" transform="translate(819 38)"><tspan x="0" y="17">Cons</tspan></text>
    <text id="ZappCards" class="cls-3" transform="translate(34 119)"><tspan x="0" y="17">ZappCards</tspan></text>
    <text id="_50" data-name="50" class="cls-8" transform="translate(224 120)"><tspan x="0" y="14">50</tspan></text>
    <text id="Business_Cards_QR_Tags_Address_book_Social_Media" data-name="Business Cards,  QR, Tags, Address book, Social Media" class="cls-9" transform="translate(321 119)"><tspan x="0" y="17" xml:space="preserve">Business Cards,  QR, </tspan><tspan x="0" y="41">Tags, Address book, </tspan><tspan x="0" y="65">Social Media</tspan></text>
    <text id="Available_only_in_spanish" data-name="Available only in spanish" class="cls-9" transform="translate(819 120)"><tspan x="0" y="17">Available only in </tspan><tspan x="0" y="41">spanish</tspan></text>
    <rect id="Rectangle_468" data-name="Rectangle 468" class="cls-5" width="112" height="21" rx="10.5" transform="translate(317 417)"/>
    <text id="Blinkr_Contact" data-name="Blinkr Contact" class="cls-3" transform="translate(37 225)"><tspan x="0" y="17">Blinkr Contact</tspan></text>
    <text id="_10" data-name="10" class="cls-8" transform="translate(226 225)"><tspan x="0" y="14">10</tspan></text>
    <text id="Customisable_user_has_agency." data-name="Customisable, user has agency." class="cls-9" transform="translate(584 225)"><tspan x="0" y="17">Customisable, user has </tspan><tspan x="0" y="41">agency.</tspan></text>
    <text id="Social_Media_QR_" data-name="Social Media QR " class="cls-3" transform="translate(37 322)"><tspan x="0" y="17">Social Media QR </tspan></text>
    <text id="_" data-name="——" class="cls-8" transform="translate(226 312)"><tspan x="0" y="14">——</tspan></text>
    <text id="Gives_overview_of_all_the_aspects_of_ones_social_presence" data-name="Gives overview of all the aspects of ones social presence" class="cls-9" transform="translate(584 322)"><tspan x="0" y="17">Gives overview of all </tspan><tspan x="0" y="41">the aspects of ones </tspan><tspan x="0" y="65">social presence</tspan></text>
    <text id="Only_for_business" data-name="Only for business" class="cls-9" transform="translate(819 322)"><tspan x="0" y="17">Only for business</tspan></text>
    <text id="Smart_Contact" data-name="Smart Contact" class="cls-3" transform="translate(39 417)"><tspan x="0" y="17">Smart Contact</tspan></text>
    <text id="_27" data-name="27" class="cls-8" transform="translate(226 417)"><tspan x="0" y="14">27</tspan></text>
    <rect id="Rectangle_457" data-name="Rectangle 457" class="cls-7" width="31" height="21" rx="10.5" transform="translate(317 322)"/>
    <text id="Different_views_contact_manager" data-name="Different views, contact manager" class="cls-9" transform="translate(584 417)"><tspan x="0" y="17">Different views, contact </tspan><tspan x="0" y="41">manager</tspan></text>
    <rect id="Rectangle_462" data-name="Rectangle 462" class="cls-10" width="57" height="21" rx="10.5" transform="translate(356 225)"/>
    <rect id="Rectangle_467" data-name="Rectangle 467" class="cls-4" width="110" height="22" rx="11" transform="translate(317 345)"/>
    <rect id="Rectangle_469" data-name="Rectangle 469" class="cls-7" width="31" height="21" rx="10.5" transform="translate(429 417)"/>
    <rect id="Rectangle_463" data-name="Rectangle 463" class="cls-10" width="62" height="21" rx="10.5" transform="translate(348 322)"/>
    <text id="Clumsy_UI_feature_creep" data-name="Clumsy UI, feature creep" class="cls-9" transform="translate(819 417)"><tspan x="0" y="17">Clumsy UI, feature </tspan><tspan x="0" y="41">creep</tspan></text>
    <text id="Very_small_user-base._Is_not_light-weight." data-name="Very small user-base. Is not light-weight." class="cls-9" transform="translate(819 225)"><tspan x="0" y="17">Very small user-</tspan><tspan x="0" y="41">base. Is not light-</tspan><tspan x="0" y="65">weight.</tspan></text>
    <text id="QR_Profile_Social_Media" data-name="QR, Profile, 
Social Media" class="cls-9" transform="translate(323 226)"><tspan x="0" y="17">QR, Profile, </tspan></text>
    <text id="Address_book_QR" data-name="Address book, QR" class="cls-9" transform="translate(319 417)"><tspan x="0" y="17">Address book, QR</tspan></text>
    <text id="QR_Profile_Social_Media-2" data-name="QR, Profile, 
Social Media" class="cls-9" transform="translate(321 322)"><tspan x="0" y="17">QR, Profile, </tspan><tspan x="0" y="41">Social Media</tspan></text>
    <text id="One_overarching_view_allows_quick_sharing" data-name="One overarching view, allows quick sharing" class="cls-9" transform="translate(584 119)"><tspan x="0" y="17">One overarching view, </tspan><tspan x="0" y="41">allows quick sharing</tspan></text>
    <line id="Line_7" data-name="Line 7" class="cls-11" x2="933" transform="translate(34.5 83.5)"/>
  </g>
</svg>
