<svg xmlns="http://www.w3.org/2000/svg" width="993" height="498" xmlns:v="https://vecta.io/nano"><style><![CDATA[.M{font-family:FuturaLT-Book,Futura LT}.N{font-size:17px}.O{fill:#696666}.P{fill:#e7e3ff}.Q{font-size:14px}]]></style><defs><clipPath id="A"><path d="M0 0h993v498H0z"/></clipPath></defs><g clip-path="url(#A)"><path d="M0 0h993v498H0z" fill="#fcfcfc"/><rect width="116" height="22" rx="11" fill="#ffdc48" x="317" y="118"/><text class="M N"><tspan y="55" x="34">Product</tspan></text><rect width="110" height="22" rx="11" fill="#e9fad2" x="317" y="168"/><text class="M N"><tspan y="55" x="224">Users</tspan></text><rect width="118" height="21" rx="10.5" fill="#3aedc7" x="361" y="144"/><rect width="44" height="21" rx="10.5" fill="#ffd8d5" x="317" y="144"/><rect width="39" height="21" rx="10.5" x="317" y="225" class="P"/><text class="M N"><tspan y="55" x="321">Feature</tspan></text><rect width="39" height="21" rx="10.5" x="441" y="118" class="P"/><text class="M N"><tspan y="55" x="584">Pros</tspan><tspan y="55" x="819">Cons</tspan><tspan y="136" x="34">ZappCards</tspan></text><text class="M O Q"><tspan y="134" x="224">50</tspan></text><text class="M N O"><tspan y="136" xml:space="preserve" x="321">Business Cards, QR, </tspan><tspan y="160" x="321">Tags, Address book, </tspan><tspan y="184" x="321">Social Media</tspan><tspan y="137" x="819">Available only in </tspan><tspan y="161" x="819">spanish</tspan></text><rect width="112" height="21" rx="10.5" fill="#3aedc7" x="317" y="417"/><text class="M N"><tspan y="242" x="37">Blinkr Contact</tspan></text><text class="M O Q"><tspan y="239" x="226">10</tspan></text><text class="M N O"><tspan y="242" x="584">Customisable, user has </tspan><tspan y="266" x="584">agency.</tspan></text><text class="M N"><tspan y="339" x="37">Social Media QR </tspan></text><text class="M O Q"><tspan y="326" x="226">——</tspan></text><text class="M N O"><tspan y="339" x="584">Gives overview of all </tspan><tspan y="363" x="584">the aspects of ones </tspan><tspan y="387" x="584">social presence</tspan><tspan y="339" x="819">Only for business</tspan></text><text class="M N"><tspan y="434" x="39">Smart Contact</tspan></text><text class="M O Q"><tspan y="431" x="226">27</tspan></text><rect width="31" height="21" rx="10.5" x="317" y="322" class="P"/><text class="M N O"><tspan y="434" x="584">Different views, contact </tspan><tspan y="458" x="584">manager</tspan></text><rect width="57" height="21" rx="10.5" fill="#eaf7fd" x="356" y="225"/><rect width="110" height="22" rx="11" fill="#e9fad2" x="317" y="345"/><rect width="31" height="21" rx="10.5" x="429" y="417" class="P"/><rect width="62" height="21" rx="10.5" fill="#eaf7fd" x="348" y="322"/><text class="M N O"><tspan y="434" x="819">Clumsy UI, feature </tspan><tspan y="458" x="819">creep</tspan><tspan y="242" x="819">Very small user-</tspan><tspan y="266" x="819">base. Is not light-</tspan><tspan y="290" x="819">weight.</tspan><tspan y="243" x="323">QR, Profile, </tspan><tspan y="434" x="319">Address book, QR</tspan><tspan y="339" x="321">QR, Profile, </tspan><tspan y="363" x="321">Social Media</tspan><tspan y="136" x="584">One overarching view, </tspan><tspan y="160" x="584">allows quick sharing</tspan></text><path d="M34.5 83.5h933" fill="none" stroke="#eae8e8"/></g></svg>