<svg xmlns="http://www.w3.org/2000/svg" xmlns:xlink="http://www.w3.org/1999/xlink" width="993" height="1124" viewBox="0 0 993 1124">
  <defs>
    <style>
      .cls-1 {
        clip-path: url(#clip-Artboard_5);
      }

      .cls-2 {
        fill: #fa836d;
      }

      .cls-3, .cls-5 {
        font-size: 17px;
        font-family: FuturaLT-Book, Futura LT;
      }

      .cls-4 {
        fill: #03e6a9;
      }

      .cls-5 {
        fill: #030303;
      }

      .cls-6 {
        fill: none;
        stroke: #000;
        opacity: 0.092;
      }

      .cls-7 {
        fill: #fcfafa;
      }
    </style>
    <clipPath id="clip-Artboard_5">
      <rect width="993" height="1124"/>
    </clipPath>
  </defs>
  <g id="Artboard_5" data-name="Artboard – 5" class="cls-1">
    <rect class="cls-7" width="993" height="1124"/>
    <rect id="orange" class="cls-2" width="241" height="23" rx="9" transform="translate(642 632)"/>
    <rect id="orange-2" data-name="orange" class="cls-2" width="63" height="23" rx="9" transform="translate(782 119)"/>
    <text id="Product" class="cls-3" transform="translate(34 38)"><tspan x="0" y="17">Product</tspan></text>
    <rect id="green" class="cls-4" width="177" height="23" rx="8" transform="translate(400 215)"/>
    <rect id="green-2" data-name="green" class="cls-4" width="83" height="23" rx="9" transform="translate(323 287)"/>
    <rect id="green-3" data-name="green" class="cls-4" width="128" height="23" rx="9" transform="translate(406 434)"/>
    <rect id="green-4" data-name="green" class="cls-4" width="87" height="23" rx="9" transform="translate(435 410)"/>
    <rect id="orange-3" data-name="orange" class="cls-2" width="156" height="23" rx="9" transform="translate(645 482)"/>
    <rect id="orange-4" data-name="orange" class="cls-2" width="114" height="23" rx="9" transform="translate(726 216)"/>
    <rect id="green-5" data-name="green" class="cls-4" width="120" height="23" rx="9" transform="translate(317 632)"/>
    <rect id="orange-5" data-name="orange" class="cls-2" width="194" height="23" rx="9" transform="translate(647 145)"/>
    <rect id="orange-6" data-name="orange" class="cls-2" width="129" height="23" rx="9" transform="translate(647 288)"/>
    <text id="Pros" class="cls-3" transform="translate(324 38)"><tspan x="0" y="17">Pros</tspan></text>
    <text id="Cons" class="cls-3" transform="translate(659 38)"><tspan x="0" y="17">Cons</tspan></text>
    <rect id="orange-7" data-name="orange" class="cls-2" width="225" height="23" rx="9" transform="translate(645 776)"/>
    <rect id="green-6" data-name="green" class="cls-4" width="123" height="23" rx="9" transform="translate(376 657)"/>
    <rect id="orange-8" data-name="orange" class="cls-2" width="101" height="23" rx="9" transform="translate(645 800)"/>
    <rect id="green-7" data-name="green" class="cls-4" width="93" height="23" rx="9" transform="translate(324 119)"/>
    <g id="Group_748" data-name="Group 748" transform="translate(-1 -15)">
      <text id="Messenger" class="cls-5" transform="translate(37 425)"><tspan x="0" y="17">Messenger</tspan></text>
      <text id="They_have_their_own_Code_which_people_can_scan_to_connect." data-name="They have their own Code, which people can scan to connect." class="cls-5" transform="translate(324 425)"><tspan x="0" y="17">They have their own Code, which </tspan><tspan x="0" y="41">people can scan to connect.</tspan></text>
      <text id="Not_many_people_know_about_this_or_use_this_feature._It_s_not_discoverable._Hence_not_readily_available." data-name="Not many people know about this or use this feature.

It’s not discoverable. Hence not readily available." class="cls-5" transform="translate(651 425)"><tspan x="0" y="17">Not many people know about </tspan><tspan x="0" y="41">this or use this feature.</tspan><tspan x="0" y="65"></tspan><tspan x="0" y="89">It’s not discoverable. Hence not </tspan><tspan x="0" y="113">readily available.</tspan></text>
    </g>
    <g id="Group_747" data-name="Group 747">
      <text id="TrueCaller" class="cls-5" transform="translate(34 119)"><tspan x="0" y="17">TrueCaller</tspan></text>
      <text id="Users_still_have_to_type_the_number_to_call_each_other_in_order_to_save._Too_many_advertisements._UI_and_UX_is_overwhelming._Not_very_famous_in_USA_" data-name="Users still have to type the number to call each other in order to save.

Too many advertisements. UI and UX is overwhelming. 

Not very famous in USA

" class="cls-5" transform="translate(651 120)"><tspan x="0" y="17">Users still have to type the </tspan><tspan x="0" y="41">number to call each other in </tspan><tspan x="0" y="65">order to save.</tspan><tspan x="0" y="89"></tspan><tspan x="0" y="113">Too many advertisements. UI and </tspan><tspan x="0" y="137">UX is overwhelming. </tspan><tspan x="0" y="161"></tspan><tspan x="0" y="185">Not very famous in USA</tspan><tspan x="0" y="209"></tspan><tspan x="0" y="233"></tspan></text>
      <text id="Auto_detects_unknown_number_user_just_have_to_click_on_save_button._Huge_and_ever-growing_database_of_users._Saves_time_required_to_type_spell_and_ask_the_other_person_s_name_and_other_information." data-name="Auto detects unknown number, user just have to click on save button.

Huge and ever-growing database of users. 

Saves time required to type, spell and ask the other person’s name and other information." class="cls-5" transform="translate(324 119)"><tspan x="0" y="17">Auto detects unknown number, </tspan><tspan x="0" y="41">user just have to click on save </tspan><tspan x="0" y="65">button.</tspan><tspan x="0" y="89"></tspan><tspan x="0" y="113">Huge and ever-growing database </tspan><tspan x="0" y="137">of users. </tspan><tspan x="0" y="161"></tspan><tspan x="0" y="185">Saves time required to type, spell </tspan><tspan x="0" y="209">and ask the other person’s name </tspan><tspan x="0" y="233">and other information.</tspan></text>
    </g>
    <line id="Line_7" data-name="Line 7" class="cls-6" x2="933" transform="translate(34.5 83.5)"/>
    <rect id="orange-9" data-name="orange" class="cls-2" width="200" height="23" rx="9" transform="translate(646 1015)"/>
    <g id="Group_749" data-name="Group 749" transform="translate(-3)">
      <text id="Instagram" class="cls-5" transform="translate(37 632)"><tspan x="0" y="17">Instagram</tspan></text>
      <text id="Gives_overview_of_all_the_aspects_of_ones_social_presence" data-name="Gives overview of all the aspects of ones social presence" class="cls-5" transform="translate(324 632)"><tspan x="0" y="17">Gives overview of all the aspects </tspan><tspan x="0" y="41">of ones social presence</tspan></text>
      <text id="Suggestions_rather_on_demand._Keeps_suggesting_the_same_set_of_people_even_though_user_doesn_t_want_to_connect_with_them._By_mistakes_users_can_click_on_the_follow_button_causing_embarrassment_" data-name="Suggestions rather on demand.

Keeps suggesting the same set of people, even though  user doesn’t want to connect with them.

By mistakes users can click on the follow button, causing embarrassment
" class="cls-5" transform="translate(651 632)"><tspan x="0" y="17">Suggestions rather on demand.</tspan><tspan x="0" y="41"></tspan><tspan x="0" y="65">Keeps suggesting the same set of </tspan><tspan x="0" y="89" xml:space="preserve">people, even though  user doesn’t </tspan><tspan x="0" y="113">want to connect with them.</tspan><tspan x="0" y="137"></tspan><tspan x="0" y="161">By mistakes users can click on the </tspan><tspan x="0" y="185">follow button, causing </tspan><tspan x="0" y="209">embarrassment</tspan><tspan x="0" y="233"></tspan></text>
    </g>
    <rect id="green-8" data-name="green" class="cls-4" width="192" height="23" rx="9" transform="translate(352 896)"/>
    <rect id="green-9" data-name="green" class="cls-4" width="225" height="23" rx="9" transform="translate(319 920)"/>
    <g id="Group_750" data-name="Group 750">
      <text id="LinkedIn" class="cls-5" transform="translate(37 896)"><tspan x="0" y="17">LinkedIn</tspan></text>
      <text id="On_connecting_with_calendar_automatically_suggests_people_who_you_met_but_only_if_user_has_created_an_event_on_and_added_people_to_it._" data-name="On connecting with calendar, automatically suggests people who you met but only if user has created an event on and added people to it.
" class="cls-5" transform="translate(324 896)"><tspan x="0" y="17">On connecting with calendar, </tspan><tspan x="0" y="41">automatically suggests people </tspan><tspan x="0" y="65">who you met but only if user has </tspan><tspan x="0" y="89">created an event on and added </tspan><tspan x="0" y="113">people to it.</tspan><tspan x="0" y="137"></tspan></text>
      <text id="Dependency_on_Calendar._Only_caters_to_professional_networking._Not_an_on-demand_feature._" data-name="Dependency on Calendar. 

Only caters to professional networking. 

Not an on-demand feature. 



" class="cls-5" transform="translate(650 896)"><tspan x="0" y="17">Dependency on Calendar. </tspan><tspan x="0" y="41"></tspan><tspan x="0" y="65">Only caters to professional </tspan><tspan x="0" y="89">networking. </tspan><tspan x="0" y="113"></tspan><tspan x="0" y="137">Not an on-demand feature. </tspan><tspan x="0" y="161"></tspan><tspan x="0" y="185"></tspan><tspan x="0" y="209"></tspan></text>
    </g>
  </g>
</svg>
