<svg xmlns="http://www.w3.org/2000/svg" xmlns:xlink="http://www.w3.org/1999/xlink" width="942" height="293" viewBox="0 0 942 293">
  <defs>
    <style>
      .cls-1 {
        clip-path: url(#clip-insights);
      }

      .cls-2 {
        fill: #414141;
        font-size: 13px;
        font-family: RobotoMono-Regular, Roboto Mono;
      }

      .cls-3 {
        fill: #dbefc7;
      }

      .cls-4 {
        fill: #d6e5fd;
      }

      .cls-5 {
        fill: #b1e8cf;
      }

      .cls-6 {
        fill: #f7f7f7;
      }
    </style>
    <clipPath id="clip-insights">
      <rect width="942" height="293"/>
    </clipPath>
  </defs>
  <g id="insights" class="cls-1">
    <rect class="cls-6" width="942" height="293"/>
    <text id="Struggle_finding_each_other_on_social_media" data-name="Struggle finding each other 
on social media" class="cls-2" transform="translate(62 151)"><tspan x="0" y="14">Struggle finding </tspan><tspan x="0" y="32">each other </tspan><tspan x="0" y="50">on social media</tspan></text>
    <text id="Problems_with_spelling_names." data-name="Problems with spelling names." class="cls-2" transform="translate(302 151)"><tspan x="0" y="14">Problems with </tspan><tspan x="0" y="32">spelling </tspan><tspan x="0" y="50">names.</tspan></text>
    <text id="Connection_hits_dead_end_if_one_shares_contact" data-name="Connection hits dead end, if one shares contact" class="cls-2" transform="translate(527 151)"><tspan x="0" y="14">Connection </tspan><tspan x="0" y="32">hits dead end, </tspan><tspan x="0" y="50">if one shares </tspan><tspan x="0" y="68">contact</tspan></text>
    <text id="Indecisiveness_in_deciding_where_to_connect_" data-name="Indecisiveness in deciding where to connect " class="cls-2" transform="translate(752 151)"><tspan x="0" y="14">Indecisiveness </tspan><tspan x="0" y="32">in deciding </tspan><tspan x="0" y="50">where to </tspan><tspan x="0" y="68">connect </tspan></text>
    <rect id="Rectangle_43" data-name="Rectangle 43" class="cls-3" width="58" height="36" rx="18" transform="translate(62 76)"/>
    <rect id="Rectangle_46" data-name="Rectangle 46" class="cls-3" width="116" height="27" rx="13.5" transform="translate(752 82)"/>
    <rect id="Rectangle_44" data-name="Rectangle 44" class="cls-4" width="56" height="36" rx="18" transform="translate(313 76)"/>
    <rect id="Rectangle_45" data-name="Rectangle 45" class="cls-5" width="56" height="35" rx="17.5" transform="translate(527 77)"/>
    <path id="Icon_ionic-md-search" data-name="Icon ionic-md-search" d="M20.423,18.552H19.4l-.383-.319A8.455,8.455,0,0,0,21,12.8a8.248,8.248,0,1,0-8.217,8.3,8.536,8.536,0,0,0,5.414-1.98l.382.319v1.022l6.369,6.387,1.911-1.916Zm-7.643,0A5.749,5.749,0,1,1,18.512,12.8,5.717,5.717,0,0,1,12.78,18.552Z" transform="translate(75.5 79.5)"/>
    <path id="Icon_awesome-volume-up" data-name="Icon awesome-volume-up" d="M9.726,3.615,5.7,7.638H1.086A1.085,1.085,0,0,0,0,8.723v6.513a1.086,1.086,0,0,0,1.086,1.086H5.7l4.024,4.023a1.086,1.086,0,0,0,1.853-.768V4.382A1.086,1.086,0,0,0,9.726,3.615ZM20.279,1.3a1.095,1.095,0,0,0-1.2,1.83,10.568,10.568,0,0,1,0,17.692,1.094,1.094,0,1,0,1.2,1.83,12.757,12.757,0,0,0,0-21.352ZM21.71,11.98a8.351,8.351,0,0,0-3.879-7.067,1.081,1.081,0,0,0-1.5.337,1.1,1.1,0,0,0,.335,1.509,6.182,6.182,0,0,1,0,10.441,1.1,1.1,0,0,0-.335,1.509,1.083,1.083,0,0,0,1.5.337A8.351,8.351,0,0,0,21.71,11.98ZM15.3,8.5a1.086,1.086,0,1,0-1.048,1.9,1.783,1.783,0,0,1,0,3.149,1.086,1.086,0,1,0,1.048,1.9,3.955,3.955,0,0,0,0-6.954Z" transform="translate(329.173 82.52)"/>
    <path id="Icon_awesome-hand-paper" data-name="Icon awesome-hand-paper" d="M18.022,5.644a1.791,1.791,0,0,0-1.8,1.8v3.845h-.353V3.518a1.791,1.791,0,0,0-1.8-1.8,1.764,1.764,0,0,0-1.729,1.763v7.8h-.353V1.8a1.791,1.791,0,0,0-1.8-1.8A1.764,1.764,0,0,0,8.465,1.764v9.523H8.112V3.562a1.791,1.791,0,0,0-1.8-1.8A1.764,1.764,0,0,0,4.585,3.527v10.4l-1.4-1.919A1.764,1.764,0,1,0,.337,14.087L5.875,21.7a2.116,2.116,0,0,0,1.711.872H16.3a2.116,2.116,0,0,0,2.06-1.632l1.169-4.967a8.465,8.465,0,0,0,.225-1.939V7.407A1.763,1.763,0,0,0,18.022,5.644Z" transform="translate(538 82)"/>
    <path id="Icon_simple-instagram" data-name="Icon simple-instagram" d="M10.7,0C7.793,0,7.43.013,6.289.064a7.89,7.89,0,0,0-2.6.5A5.24,5.24,0,0,0,1.8,1.8a5.221,5.221,0,0,0-1.234,1.9,7.867,7.867,0,0,0-.5,2.6C.011,7.43,0,7.793,0,10.7s.013,3.27.064,4.411a7.9,7.9,0,0,0,.5,2.6A5.247,5.247,0,0,0,1.8,19.6a5.232,5.232,0,0,0,1.9,1.234,7.9,7.9,0,0,0,2.6.5c1.141.053,1.5.064,4.411.064s3.27-.013,4.411-.064a7.918,7.918,0,0,0,2.6-.5,5.468,5.468,0,0,0,3.13-3.13,7.9,7.9,0,0,0,.5-2.6c.054-1.141.064-1.5.064-4.411s-.013-3.27-.064-4.411a7.913,7.913,0,0,0-.5-2.6A5.252,5.252,0,0,0,19.6,1.8a5.213,5.213,0,0,0-1.9-1.234,7.872,7.872,0,0,0-2.6-.5C13.97.011,13.607,0,10.7,0Zm0,1.926c2.856,0,3.2.014,4.325.063a5.9,5.9,0,0,1,1.986.37,3.521,3.521,0,0,1,2.031,2.03,5.908,5.908,0,0,1,.368,1.986c.051,1.129.062,1.468.062,4.325s-.013,3.2-.066,4.325a6.022,6.022,0,0,1-.375,1.986,3.4,3.4,0,0,1-.8,1.232,3.338,3.338,0,0,1-1.231.8,5.951,5.951,0,0,1-1.993.368c-1.136.051-1.47.062-4.333.062s-3.2-.013-4.333-.066a6.067,6.067,0,0,1-1.994-.375,3.314,3.314,0,0,1-1.23-.8A3.249,3.249,0,0,1,2.315,17a6.073,6.073,0,0,1-.375-1.993c-.04-1.124-.054-1.47-.054-4.319s.014-3.2.054-4.334A6.066,6.066,0,0,1,2.315,4.36a3.172,3.172,0,0,1,.8-1.231,3.165,3.165,0,0,1,1.23-.8,5.922,5.922,0,0,1,1.98-.375C7.464,1.913,7.8,1.9,10.66,1.9l.04.027Zm0,3.28A5.495,5.495,0,1,0,16.195,10.7,5.494,5.494,0,0,0,10.7,5.206Zm0,9.061A3.567,3.567,0,1,1,14.267,10.7,3.566,3.566,0,0,1,10.7,14.267Zm7-9.278a1.284,1.284,0,1,1-1.284-1.283A1.285,1.285,0,0,1,17.7,4.989Z" transform="translate(769 84.8)"/>
    <path id="Icon_awesome-facebook-square" data-name="Icon awesome-facebook-square" d="M19.107,2.25H2.293A2.293,2.293,0,0,0,0,4.543V21.357A2.293,2.293,0,0,0,2.293,23.65H8.849V16.375H5.84V12.95H8.849V10.34c0-2.969,1.767-4.609,4.474-4.609a18.232,18.232,0,0,1,2.652.231V8.876H14.482a1.712,1.712,0,0,0-1.931,1.85V12.95h3.286l-.525,3.425h-2.76V23.65h6.556A2.293,2.293,0,0,0,21.4,21.357V4.543A2.293,2.293,0,0,0,19.107,2.25Z" transform="translate(798.74 82.55)"/>
    <path id="Icon_awesome-linkedin" data-name="Icon awesome-linkedin" d="M19.686,2.25H1.51A1.521,1.521,0,0,0,0,3.778V21.922A1.521,1.521,0,0,0,1.51,23.45H19.686A1.525,1.525,0,0,0,21.2,21.922V3.778A1.525,1.525,0,0,0,19.686,2.25ZM6.407,20.422H3.265V10.3H6.412V20.422ZM4.836,8.922A1.822,1.822,0,1,1,6.658,7.1,1.823,1.823,0,0,1,4.836,8.922Zm13.349,11.5H15.044V15.5c0-1.174-.024-2.683-1.633-2.683-1.637,0-1.888,1.278-1.888,2.6v5.007H8.381V10.3H11.4v1.382h.043a3.31,3.31,0,0,1,2.977-1.633c3.18,0,3.772,2.1,3.772,4.822Z" transform="translate(828 82.75)"/>
  </g>
</svg>
