<svg xmlns="http://www.w3.org/2000/svg" xmlns:xlink="http://www.w3.org/1999/xlink" width="942" height="293" viewBox="0 0 942 293">
  <defs>
    <style>
      .cls-1 {
        clip-path: url(#clip-Process);
      }

      .cls-2 {
        font-size: 15px;
      }

      .cls-2, .cls-3 {
        font-family: RobotoMono-Bold, Roboto Mono;
        font-weight: 700;
      }

      .cls-3, .cls-4, .cls-5 {
        font-size: 13px;
      }

      .cls-4 {
        fill: #414141;
      }

      .cls-4, .cls-5 {
        font-family: RobotoMono-Regular, Roboto Mono;
      }

      .cls-5 {
        fill: #434343;
      }

      .cls-6 {
        fill: #f5f9ff;
      }
    </style>
    <clipPath id="clip-Process">
      <rect width="942" height="293"/>
    </clipPath>
  </defs>
  <g id="Process" class="cls-1">
    <rect class="cls-6" width="942" height="293"/>
    <text id="TEAM" class="cls-2" transform="translate(43 49)"><tspan x="0" y="0">TEAM</tspan></text>
    <text id="PROCESS-2" data-name="PROCESS" class="cls-2" transform="translate(345 49)"><tspan x="0" y="0">PROCESS</tspan></text>
    <text id="Sprint_01" data-name="Sprint 01" class="cls-2" transform="translate(345 97)"><tspan x="0" y="0">Sprint 01</tspan></text>
    <text id="Sprint_02" data-name="Sprint 02" class="cls-2" transform="translate(493 97)"><tspan x="0" y="0">Sprint 02</tspan></text>
    <text id="Sprint_03" data-name="Sprint 03" class="cls-2" transform="translate(641 97)"><tspan x="0" y="0">Sprint 03</tspan></text>
    <text id="Sprint_04" data-name="Sprint 04" class="cls-2" transform="translate(789 97)"><tspan x="0" y="0">Sprint 04</tspan></text>
    <text id="Pragati" class="cls-3" transform="translate(43 97)"><tspan x="0" y="0">Pragati</tspan></text>
    <text id="Designer" class="cls-4" transform="translate(133 97)"><tspan x="0" y="0">Designer</tspan></text>
    <text id="Project_Management" data-name="Project Management" class="cls-4" transform="translate(133 138)"><tspan x="0" y="0">Project Management</tspan></text>
    <text id="Interviews_Comparative_Analysis_Ideation_Wireframing_" data-name="Interviews

Comparative
Analysis 

Ideation &amp; 
Wireframing
" class="cls-5" transform="translate(345 138)"><tspan x="0" y="0">Interviews</tspan><tspan x="0" y="18"></tspan><tspan x="0" y="36">Comparative</tspan><tspan x="0" y="54">Analysis </tspan><tspan x="0" y="72"></tspan><tspan x="0" y="90">Ideation &amp; </tspan><tspan x="0" y="108">Wireframing</tspan><tspan x="0" y="126"></tspan></text>
    <text id="High-fidelity_Prototyping_Feedback_Sessions_" data-name="High-fidelity
Prototyping

Feedback
Sessions
" class="cls-5" transform="translate(493 138)"><tspan x="0" y="0">High-fidelity</tspan><tspan x="0" y="18">Prototyping</tspan><tspan x="0" y="36"></tspan><tspan x="0" y="54">Feedback</tspan><tspan x="0" y="72">Sessions</tspan><tspan x="0" y="90"></tspan></text>
    <text id="Testing_Iteration_Development_" data-name="Testing

Iteration

Development

" class="cls-5" transform="translate(641 138)"><tspan x="0" y="0">Testing</tspan><tspan x="0" y="18"></tspan><tspan x="0" y="36">Iteration</tspan><tspan x="0" y="54"></tspan><tspan x="0" y="72">Development</tspan><tspan x="0" y="90"></tspan><tspan x="0" y="108"></tspan></text>
    <text id="Development_Testing_Iteration_" data-name="Development

Testing

Iteration

" class="cls-5" transform="translate(789 138)"><tspan x="0" y="0">Development</tspan><tspan x="0" y="18"></tspan><tspan x="0" y="36">Testing</tspan><tspan x="0" y="54"></tspan><tspan x="0" y="72">Iteration</tspan><tspan x="0" y="90"></tspan><tspan x="0" y="108"></tspan></text>
    <text id="Developer" class="cls-4" transform="translate(133 185)"><tspan x="0" y="0">Developer</tspan></text>
    <text id="Developer-2" data-name="Developer" class="cls-4" transform="translate(133 231)"><tspan x="0" y="0">Developer</tspan></text>
    <text id="Kenneth" class="cls-3" transform="translate(43 138)"><tspan x="0" y="0">Kenneth</tspan></text>
    <text id="Phalguna" class="cls-3" transform="translate(43 185)"><tspan x="0" y="0">Phalguna</tspan></text>
    <text id="Wyndham" class="cls-3" transform="translate(43 231)"><tspan x="0" y="0">Wyndham</tspan></text>
  </g>
</svg>
