<svg xmlns="http://www.w3.org/2000/svg" xmlns:xlink="http://www.w3.org/1999/xlink" width="812" height="560" viewBox="0 0 812 560">
  <defs>
    <clipPath id="clip-path">
      <rect id="Rectangle_112" data-name="Rectangle 112" width="389" height="446" fill="#fff" stroke="#707070" stroke-width="1"/>
    </clipPath>
    <filter id="ChatBoxBG" x="154.502" y="35" width="502" height="544" filterUnits="userSpaceOnUse">
      <feOffset dx="-1" dy="19" input="SourceAlpha"/>
      <feGaussianBlur stdDeviation="19" result="blur"/>
      <feFlood flood-opacity="0.071"/>
      <feComposite operator="in" in2="blur"/>
      <feComposite in="SourceGraphic"/>
    </filter>
    <linearGradient id="linear-gradient" y1="0.24" x2="0.5" y2="1" gradientUnits="objectBoundingBox">
      <stop offset="0" stop-color="#301fff"/>
      <stop offset="1" stop-color="#9200ff"/>
    </linearGradient>
    <filter id="Ellipse_2" x="215.502" y="-86" width="77" height="76" filterUnits="userSpaceOnUse">
      <feOffset dx="4" dy="5" input="SourceAlpha"/>
      <feGaussianBlur stdDeviation="5" result="blur-2"/>
      <feFlood flood-opacity="0.161"/>
      <feComposite operator="in" in2="blur-2"/>
      <feComposite in="SourceGraphic"/>
    </filter>
    <filter id="Ellipse_2-2" x="215.502" y="266" width="77" height="76" filterUnits="userSpaceOnUse">
      <feOffset dx="4" dy="5" input="SourceAlpha"/>
      <feGaussianBlur stdDeviation="5" result="blur-3"/>
      <feFlood flood-opacity="0.161"/>
      <feComposite operator="in" in2="blur-3"/>
      <feComposite in="SourceGraphic"/>
    </filter>
  </defs>
  <g id="Group_79" data-name="Group 79" transform="translate(-298 -252.107)" style="isolation: isolate">
    <g id="Group_78" data-name="Group 78" transform="translate(298 252)" style="isolation: isolate">
      <rect id="Rectangle_97" data-name="Rectangle 97" width="812" height="560" transform="translate(0 0.107)" fill="#ffcf03"/>
      <g id="Mask_Group_1" data-name="Mask Group 1" transform="translate(212.502 57.107)" clip-path="url(#clip-path)">
        <g id="Component_4_28" data-name="Component 4 – 28" transform="translate(0 -133)">
          <g id="ChatBoxBG-2" data-name="ChatBoxBG" transform="translate(0 149)">
            <g transform="matrix(1, 0, 0, 1, -212.5, -73)" filter="url(#ChatBoxBG)">
              <rect id="ChatBoxBG-3" data-name="ChatBoxBG" width="388" height="430" transform="translate(212.5 73)" fill="#fff"/>
            </g>
          </g>
          <g id="TextBox" transform="translate(0 480)">
            <rect id="Rectangle_94" data-name="Rectangle 94" width="388" height="99" fill="#fff"/>
            <line id="Line_6" data-name="Line 6" x1="388.175" transform="translate(0.432 0.876)" fill="none" stroke="#ddd" stroke-width="1"/>
            <text id="Type_your_message_here" data-name="Type your message here" transform="translate(26 55)" fill="#707070" font-size="17" font-family="SegoeUI, Segoe UI" opacity="0.726"><tspan x="0" y="0">Type your message here</tspan></text>
            <path id="Icon_metro-attachment" data-name="Icon metro-attachment" d="M15.268,7.982l-1.2-1.2L8.053,12.793A2.551,2.551,0,1,0,11.661,16.4l7.215-7.215a4.251,4.251,0,0,0-6.013-6.012L5.288,10.749l-.016.016a5.93,5.93,0,0,0,8.386,8.386l.016-.016h0l5.171-5.171-1.2-1.2-5.171,5.17-.016.016a4.229,4.229,0,0,1-5.981-5.98l.016-.016h0l7.577-7.575a2.551,2.551,0,0,1,3.608,3.606L10.459,15.2a.85.85,0,0,1-1.2-1.2l6.013-6.013Z" transform="translate(316.776 39.148)" fill="#707070"/>
          </g>
          <g id="Bot-type" transform="translate(14)">
            <g id="Component_2_2" data-name="Component 2 – 2">
              <g id="ChatBot">
                <g transform="matrix(1, 0, 0, 1, -226.5, 76)" filter="url(#Ellipse_2)">
                  <ellipse id="Ellipse_2-3" data-name="Ellipse 2" cx="23.5" cy="23" rx="23.5" ry="23" transform="translate(226.5 -76)" fill="url(#linear-gradient)"/>
                </g>
                <ellipse id="Ellipse_4" data-name="Ellipse 4" cx="23.5" cy="23" rx="23.5" ry="23" fill="url(#linear-gradient)"/>
              </g>
              <g id="Group_75" data-name="Group 75" transform="translate(10 10)">
                <rect id="Rectangle_93" data-name="Rectangle 93" width="26" height="22" rx="10" fill="#fff"/>
                <circle id="Ellipse_24" data-name="Ellipse 24" cx="2" cy="2" r="2" transform="translate(6 11)" fill="#4a16fa"/>
                <ellipse id="Ellipse_25" data-name="Ellipse 25" cx="1.5" cy="2" rx="1.5" ry="2" transform="translate(17 11)" fill="#4a16fa"/>
              </g>
            </g>
            <g id="Component" transform="translate(61 0)">
              <rect id="Rectangle_95" data-name="Rectangle 95" width="235" height="108" rx="8" fill="#f8f8f8"/>
              <text id="I_m_your_BI_analyst._Ask_me_anything_about_sales_data_or_insights." data-name="I’m your BI analyst. Ask  me anything about sales  data or insights." transform="translate(23 37)" font-size="17" font-family="SegoeUI, Segoe UI"><tspan x="0" y="0">I’m your BI analyst. Ask </tspan><tspan x="0" y="23">me anything about sales </tspan><tspan x="0" y="46">data or insights.</tspan></text>
            </g>
            <text id="_9:00_PM" data-name="9:00 PM" transform="translate(61 126)" fill="#9a9a9a" font-size="10" font-family="SegoeUI-Semibold, Segoe UI" font-weight="600"><tspan x="0" y="0">9:00 PM</tspan></text>
          </g>
          <g id="Bot-type-2" data-name="Bot-type" transform="translate(14 352)">
            <g id="Component_2_2-2" data-name="Component 2 – 2">
              <g id="ChatBot-2" data-name="ChatBot">
                <g transform="matrix(1, 0, 0, 1, -226.5, -276)" filter="url(#Ellipse_2-2)">
                  <ellipse id="Ellipse_2-4" data-name="Ellipse 2" cx="23.5" cy="23" rx="23.5" ry="23" transform="translate(226.5 276)" fill="url(#linear-gradient)"/>
                </g>
                <ellipse id="Ellipse_4-2" data-name="Ellipse 4" cx="23.5" cy="23" rx="23.5" ry="23" fill="url(#linear-gradient)"/>
              </g>
              <g id="Group_75-2" data-name="Group 75" transform="translate(10 10)">
                <rect id="Rectangle_93-2" data-name="Rectangle 93" width="26" height="22" rx="10" fill="#fff"/>
                <circle id="Ellipse_24-2" data-name="Ellipse 24" cx="2" cy="2" r="2" transform="translate(6 11)" fill="#4a16fa"/>
                <ellipse id="Ellipse_25-2" data-name="Ellipse 25" cx="1.5" cy="2" rx="1.5" ry="2" transform="translate(17 11)" fill="#4a16fa"/>
              </g>
            </g>
            <g id="Component-2" data-name="Component" transform="translate(61)">
              <rect id="Rectangle_95-2" data-name="Rectangle 95" width="235" height="87" rx="8" fill="#f8f8f8"/>
              <text id="I_can_help_you_find_insights_from_sales_data." data-name="I can help you find insights from sales data." transform="translate(23 37)" font-size="17" font-family="SegoeUI, Segoe UI"><tspan x="0" y="0">I can help you find </tspan><tspan x="0" y="23">insights from sales data.</tspan></text>
            </g>
            <text id="_9:00_PM-2" data-name="9:00 PM" transform="translate(61 105)" fill="#9a9a9a" font-size="10" font-family="SegoeUI-Semibold, Segoe UI" font-weight="600"><tspan x="0" y="0">9:00 PM</tspan></text>
          </g>
          <g id="Bot-type-3" data-name="Bot-type" transform="translate(230 256)">
            <g id="Component-3" data-name="Component">
              <rect id="Rectangle_95-3" data-name="Rectangle 95" width="138" height="54" rx="8" fill="#767676"/>
              <text id="What_s_that_" data-name="What’s that?" transform="translate(21.136 30.633)" fill="#fcfcfc" font-size="17" font-family="SegoeUI, Segoe UI"><tspan x="0" y="0">What’s that?</tspan></text>
            </g>
            <text id="_9:00_PM-3" data-name="9:00 PM" transform="translate(100 72)" fill="#9a9a9a" font-size="10" font-family="SegoeUI-Semibold, Segoe UI" font-weight="600"><tspan x="0" y="0">9:00 PM</tspan></text>
          </g>
          <g id="Group_101" data-name="Group 101" transform="translate(78 142)">
            <rect id="Rectangle_110" data-name="Rectangle 110" width="228" height="38" rx="19" fill="#00cb5e"/>
            <text id="View_it_on_Dashboard" data-name="View it on Dashboard" transform="translate(52.439 23.785)" fill="#fff" font-size="12" font-family="SegoeUI, Segoe UI"><tspan x="0" y="0">View it on Dashboard</tspan></text>
          </g>
          <g id="Group_103" data-name="Group 103" transform="translate(78.145 201)">
            <g id="Group_102" data-name="Group 102">
              <path id="Icon_simple-microsoftexcel" data-name="Icon simple-microsoftexcel" d="M14.611,2.119H9.622V3.04h1.47V4.5H9.622v.465h1.47V6.427H9.622v.478h1.47V8.289H9.622v.554h1.47v1.383H9.622v.554h1.47v1.394H9.622v1.017h4.988c.079-.023.144-.117.2-.278a1.36,1.36,0,0,0,.08-.394V2.285c0-.08-.028-.127-.08-.144a.682.682,0,0,0-.2-.022Zm-.648,10.055H11.57V10.781h2.392v1.394Zm0-1.946H11.57V8.845h2.392Zm0-1.94H11.57V6.911h2.392V8.289Zm0-1.86H11.57V4.966h2.392V6.427Zm0-1.935H11.57V3.04h2.392V4.492ZM0,1.887V13.425l8.784,1.519V.329L0,1.892Zm5.206,8.732q-.05-.136-.47-1.156c-.278-.686-.447-1.079-.5-1.192H4.225l-.94,2.243-1.259-.086,1.49-2.79L2.149,4.845l1.284-.067.849,2.183H4.3l.959-2.282,1.327-.086L5,7.615,6.632,10.7,5.206,10.61Z" transform="translate(0 4.194)" fill="#707070"/>
              <g id="Group_99" data-name="Group 99" transform="translate(28.855)">
                <text id="Download_Report" data-name="Download Report" transform="translate(0 16)" fill="#707070" font-size="15" font-family="SegoeUI, Segoe UI"><tspan x="0" y="0">Download Report</tspan></text>
                <line id="Line_8" data-name="Line 8" x2="120.17" transform="translate(0.634 23.109)" fill="none" stroke="#707070" stroke-width="1"/>
              </g>
            </g>
            <g id="Icon_feather-download" data-name="Icon feather-download" transform="translate(261.616 5.386)">
              <path id="Path_41" data-name="Path 41" d="M17.468,22.5v2.881a1.441,1.441,0,0,1-1.441,1.441H5.941A1.441,1.441,0,0,1,4.5,25.381V22.5" transform="translate(-4.5 -13.855)" fill="none" stroke="#969696" stroke-linecap="round" stroke-linejoin="round" stroke-width="2"/>
              <path id="Path_42" data-name="Path 42" d="M10.5,15l3.6,3.6L17.7,15" transform="translate(-7.619 -9.957)" fill="none" stroke="#969696" stroke-linecap="round" stroke-linejoin="round" stroke-width="2"/>
              <path id="Path_43" data-name="Path 43" d="M18,13.145V4.5" transform="translate(-11.516 -4.5)" fill="none" stroke="#969696" stroke-linecap="round" stroke-linejoin="round" stroke-width="2"/>
            </g>
          </g>
          <text id="Today_9:00PM" data-name="Today 9:00PM" transform="translate(144.463 152.359)" fill="#9a9a9a" font-size="15" font-family="SegoeUI-Semibold, Segoe UI" font-weight="600"><tspan x="0" y="0">Today 9:00PM</tspan></text>
          <g id="Chatboxhead" transform="translate(0.113 132.037)">
            <rect id="HeaderBox" width="388.062" height="42.362"/>
            <text id="BI_Analyst" data-name="BI Analyst" transform="translate(27.665 28.374)" fill="#fff" font-size="17" font-family="SegoeUI-Bold, Segoe UI" font-weight="700"><tspan x="0" y="0">BI Analyst</tspan></text>
            <g id="Cross" transform="translate(353.588 14.697)">
              <line id="Line_2" data-name="Line 2" x2="13.833" y2="12.968" transform="matrix(0.999, 0.052, -0.052, 0.999, 0.674, 0.08)" fill="none" stroke="#fff" stroke-width="4"/>
              <line id="Line_3" data-name="Line 3" x2="13.833" y2="12.968" transform="translate(13.726) rotate(90)" fill="none" stroke="#fff" stroke-width="4"/>
            </g>
            <g id="Icon_ionic-md-expand" data-name="Icon ionic-md-expand" transform="translate(315.949 13.833)">
              <path id="Path_32" data-name="Path 32" d="M27.168,7.612v4.668h3.112V4.5H22.5V7.612Z" transform="translate(-15.584 -4.5)" fill="#fff"/>
              <path id="Path_34" data-name="Path 34" d="M7.612,27.168V22.5H4.5v7.781h7.781V27.168Z" transform="translate(-4.5 -15.584)" fill="#fff"/>
            </g>
          </g>
        </g>
      </g>
    </g>
  </g>
</svg>
