<svg xmlns="http://www.w3.org/2000/svg" width="812" height="560" xmlns:v="https://vecta.io/nano"><style><![CDATA[.B{fill:#fff}.C{font-family:SegoeUI, Segoe UI}.D{font-size:17px}.E{fill:#707070}.F{fill:url(#C)}.G{fill:#9a9a9a}.H{font-family:SegoeUI-Semibold, Segoe UI}.I{font-weight:600}.J{flood-opacity:.16}]]></style><defs><clipPath id="A"><path stroke="#707070" stroke-width="1" d="M0 0h389v446H0z" class="B"/></clipPath><filter id="B" x="154.502" y="35" width="502" height="544" filterUnits="userSpaceOnUse"><feOffset dx="-1" dy="19"/><feGaussianBlur stdDeviation="19" result="A"/><feFlood flood-opacity=".07"/><feComposite operator="in" in2="A"/><feComposite in="SourceGraphic"/></filter><linearGradient id="C" y1=".24" x2=".5" y2="1"><stop offset="0" stop-color="#301fff"/><stop offset="1" stop-color="#9200ff"/></linearGradient><filter id="D" x="215.502" y="-86" width="77" height="76" filterUnits="userSpaceOnUse"><feOffset dx="4" dy="5"/><feGaussianBlur stdDeviation="5" result="A"/><feFlood class="J"/><feComposite operator="in" in2="A"/><feComposite in="SourceGraphic"/></filter><filter id="E" x="215.502" y="266" width="77" height="76" filterUnits="userSpaceOnUse"><feOffset dx="4" dy="5"/><feGaussianBlur stdDeviation="5" result="A"/><feFlood class="J"/><feComposite operator="in" in2="A"/><feComposite in="SourceGraphic"/></filter></defs><g transform="translate(0 -.107)"><path fill="#ffcf03" d="M0 .107h812v560H0z"/><g transform="translate(212.502 57.107)" clip-path="url(#A)"><g transform="translate(0 -133)"><g transform="translate(0 149)" class="B"><g transform="translate(-212.5 -73)" filter="url(#B)"><path transform="translate(212.5 73)" d="M0 0h388v430H0z"/></g></g><path d="M0 480h388v99H0z" class="B"/><path fill="none" stroke="#ddd" d="M388.607 480.876H.432"/><text opacity=".726" class="C D E"><tspan x="26" y="535">Type your message here</tspan></text><path d="M332.044 527.13l-1.2-1.2-6.015 6.01a2.55 2.55 0 0 0 1.135 4.287 2.55 2.55 0 0 0 2.473-.68l7.215-7.215c1.66-1.66 1.66-4.352 0-6.012s-4.352-1.66-6.012 0l-7.59 7.592a5.93 5.93 0 0 0 8.386 8.386l5.187-5.187-1.2-1.2-5.187 5.186a4.23 4.23 0 0 1-5.981-5.98l7.593-7.59a2.55 2.55 0 1 1 3.608 3.606l-7.22 7.215a.85.85 0 0 1-1.2-1.2l6.013-6.013z" class="E"/><g transform="translate(14)"><g transform="translate(-226.5 76)" filter="url(#D)" class="F"><ellipse cx="250" cy="-53" rx="23.5" ry="23"/></g><ellipse cx="23.5" cy="23" rx="23.5" ry="23" class="F"/><rect width="26" height="22" rx="10" x="10" y="10" class="B"/><g fill="#4a16fa"><circle cx="18" cy="23" r="2"/><ellipse cx="28.5" cy="23" rx="1.5" ry="2"/></g><rect width="235" height="108" rx="8" fill="#f8f8f8" x="61"/><text class="C D"><tspan x="84" y="37">I’m your BI analyst. Ask </tspan><tspan y="60" x="84">me anything about sales </tspan><tspan y="83" x="84">data or insights.</tspan></text><text font-size="10" class="G H I"><tspan x="61" y="126">9:00 PM</tspan></text></g><g transform="translate(14 352)"><g transform="translate(-226.5 -276)" filter="url(#E)" class="F"><ellipse cx="250" cy="299" rx="23.5" ry="23"/></g><ellipse cx="23.5" cy="23" rx="23.5" ry="23" class="F"/><rect width="26" height="22" rx="10" x="10" y="10" class="B"/><g fill="#4a16fa"><circle cx="18" cy="23" r="2"/><ellipse cx="28.5" cy="23" rx="1.5" ry="2"/></g><rect width="235" height="87" rx="8" fill="#f8f8f8" x="61"/><text class="C D"><tspan x="84" y="37">I can help you find </tspan><tspan y="60" x="84">insights from sales data.</tspan></text><text font-size="10" class="G H I"><tspan x="61" y="105">9:00 PM</tspan></text></g><rect width="138" height="54" rx="8" fill="#767676" x="230" y="256"/><text fill="#fcfcfc" class="C D"><tspan x="251.136" y="286.633">What’s that?</tspan></text><text font-size="10" class="G H I"><tspan x="330" y="328">9:00 PM</tspan></text><rect width="228" height="38" rx="19" fill="#00cb5e" x="78" y="142"/><text font-size="12" class="B C"><tspan x="130.439" y="165.785">View it on Dashboard</tspan></text><path d="M92.756 207.313h-4.99v.92h1.47v1.46h-1.47v.465h1.47v1.462h-1.47v.478h1.47v1.384h-1.47v.554h1.47v1.383h-1.47v.554h1.47v1.394h-1.47v1.017h4.988c.08-.023.144-.117.2-.278a1.36 1.36 0 0 0 .08-.394V207.48c0-.08-.028-.127-.08-.144a.68.68 0 0 0-.2-.022zm-.648 10.055h-2.393v-1.393h2.392v1.394zm0-1.946h-2.393v-1.383h2.392zm0-1.94h-2.393v-1.377h2.392v1.378zm0-1.86h-2.393v-1.462h2.392v1.46zm0-1.935h-2.393v-1.453h2.392v1.452zm-13.963-2.606v11.538l8.784 1.52v-14.615l-8.784 1.563zm5.206 8.732q-.05-.136-.47-1.156l-.5-1.192h-.01l-.94 2.243-1.26-.086 1.5-2.8-1.367-2.793 1.284-.067.85 2.183h.018l.96-2.282 1.327-.086-1.586 3.022 1.632 3.085-1.426-.1z" class="E"/><text font-size="15" class="C E"><tspan x="107" y="217">Download Report</tspan></text><g fill="none"><path stroke="#707070" d="M107.634 224.11h120.17"/><g stroke="#969696" stroke-linecap="round" stroke-linejoin="round" stroke-width="2"><path d="M352.73 215.03v2.88a1.44 1.44 0 0 1-1.441 1.441h-10.086a1.44 1.44 0 0 1-1.441-1.441v-2.88m2.88-3.6l3.6 3.6 3.6-3.6m-3.597 3.6v-8.645"/></g></g><text font-size="15" class="G H I"><tspan x="144.463" y="152.359">Today 9:00PM</tspan></text><path d="M.113 132.037h388.062V174.4H.113z"/><text font-family="SegoeUI-Bold, Segoe UI" font-weight="700" class="B D"><tspan x="27.778" y="160.411">BI Analyst</tspan></text><g fill="none" stroke="#fff"><path d="M354.375 146.814l13.145 13.674" stroke-width="4.001"/><path stroke-width="4" d="M367.427 146.734l-12.968 13.833"/></g><g class="B"><path d="M327.646 148.982v4.668h3.112v-7.78h-7.78v3.112zm-8.472 8.472v-4.668h-3.112v7.78h7.78v-3.113z"/></g></g></g></g></svg>