<svg xmlns="http://www.w3.org/2000/svg" xmlns:xlink="http://www.w3.org/1999/xlink" width="2415" height="811" viewBox="0 0 2415 811">
  <defs>
    <clipPath id="clip-insight">
      <rect width="2415" height="811"/>
    </clipPath>
  </defs>
  <g id="insight" clip-path="url(#clip-insight)">
    <rect width="2415" height="811" fill="#fdf8f5"/>
    <text id="INSIGHTS" transform="translate(556 271)" fill="#838383" font-size="30" font-family="Futura-Medium, Futura" font-weight="500"><tspan x="0" y="31">INSIGHTS</tspan></text>
    <text id="_1._Provide_more_agency_to_the_audience_2._Avoid_overpowering_visuals_and_design_-_form_must_follow_function_but_not_be_too_functional_3._Immersive_Storytelling_rather_archive_4._Avoid_unnecessary_animations_5._Content_centric_layout_" data-name="1. Provide more agency to the audience
2. Avoid overpowering visuals and design - form must follow function but not be too functional
3. Immersive Storytelling rather archive
4. Avoid unnecessary animations
5. Content centric layout
" transform="translate(556 381)" font-size="35" font-family="Futura-Medium, Futura" font-weight="500"><tspan x="0" y="36">1. Provide more agency to the audience</tspan><tspan x="0" y="82">2. Avoid overpowering visuals and design - form must follow function but not be too functional</tspan><tspan x="0" y="128">3. Immersive Storytelling rather archive</tspan><tspan x="0" y="174">4. Avoid unnecessary animations</tspan><tspan x="0" y="220">5. Content centric layout</tspan></text>
    <path id="Icon_awesome-star-of-life" data-name="Icon awesome-star-of-life" d="M33.187,23.515,23.629,18l9.558-5.515a1.125,1.125,0,0,0,.412-1.537l-2.251-3.9a1.126,1.126,0,0,0-1.538-.412l-9.558,5.515V1.125A1.125,1.125,0,0,0,19.126,0h-4.5A1.125,1.125,0,0,0,13.5,1.125V12.154L3.94,6.64A1.126,1.126,0,0,0,2.4,7.052l-2.251,3.9a1.125,1.125,0,0,0,.412,1.537L10.121,18,.563,23.515a1.125,1.125,0,0,0-.412,1.537l2.251,3.9a1.127,1.127,0,0,0,1.538.412L13.5,23.846V34.875A1.125,1.125,0,0,0,14.624,36h4.5a1.125,1.125,0,0,0,1.126-1.125V23.846L29.81,29.36a1.126,1.126,0,0,0,1.538-.412l2.251-3.9A1.124,1.124,0,0,0,33.187,23.515Z" transform="translate(423 271.5)"/>
  </g>
</svg>
