<svg xmlns="http://www.w3.org/2000/svg" xmlns:xlink="http://www.w3.org/1999/xlink" width="2415" height="811" viewBox="0 0 2415 811">
  <defs>
    <clipPath id="clip-Challenges_2">
      <rect width="2415" height="811"/>
    </clipPath>
  </defs>
  <g id="Challenges_2" data-name="Challenges – 2" clip-path="url(#clip-Challenges_2)">
    <rect width="2415" height="811" fill="#fdf8f5"/>
    <text id="CHALLENGES" transform="translate(556 271)" fill="#838383" font-size="30" font-family="Futura-Medium, Futura" font-weight="500"><tspan x="0" y="31">CHALLENGES</tspan></text>
    <text id="A_lot_of_new_content_came_up_while_I_was_working_on_the_mid-fidelity_prototype_the_increase_scale_of_the_archive_led_to_big_design_changes_in_terms_of_information_architecture_focus_and_flows." data-name="A lot of new content came up while I was working on the mid-fidelity prototype, the increase scale of the archive led to big design changes in terms of information architecture, focus and flows." transform="translate(556 381)" font-size="50" font-family="BodoniSvtyTwoITCTT-BookIta, 'Bodoni 72'" font-style="italic"><tspan x="0" y="47">A lot of new content came up while I was working on the mid-fidelity </tspan><tspan x="0" y="109">prototype, the increase scale of the archive led to big design changes in </tspan><tspan x="0" y="171">terms of information architecture, focus and flows.</tspan></text>
    <path id="Icon_awesome-star-of-life" data-name="Icon awesome-star-of-life" d="M33.187,23.515,23.629,18l9.558-5.515a1.125,1.125,0,0,0,.412-1.537l-2.251-3.9a1.126,1.126,0,0,0-1.538-.412l-9.558,5.515V1.125A1.125,1.125,0,0,0,19.126,0h-4.5A1.125,1.125,0,0,0,13.5,1.125V12.154L3.94,6.64A1.126,1.126,0,0,0,2.4,7.052l-2.251,3.9a1.125,1.125,0,0,0,.412,1.537L10.121,18,.563,23.515a1.125,1.125,0,0,0-.412,1.537l2.251,3.9a1.127,1.127,0,0,0,1.538.412L13.5,23.846V34.875A1.125,1.125,0,0,0,14.624,36h4.5a1.125,1.125,0,0,0,1.126-1.125V23.846L29.81,29.36a1.126,1.126,0,0,0,1.538-.412l2.251-3.9A1.124,1.124,0,0,0,33.187,23.515Z" transform="translate(423 271.5)"/>
  </g>
</svg>
