<svg xmlns="http://www.w3.org/2000/svg" xmlns:xlink="http://www.w3.org/1999/xlink" width="1809" height="335" viewBox="0 0 1809 335">
  <defs>
    <linearGradient id="linear-gradient" x1="0.5" x2="0.5" y2="1" gradientUnits="objectBoundingBox">
      <stop offset="0" stop-color="#0093ff"/>
      <stop offset="1" stop-color="#524bff"/>
    </linearGradient>
    <clipPath id="clip-botPersona">
      <rect width="1809" height="335"/>
    </clipPath>
  </defs>
  <g id="botPersona" clip-path="url(#clip-botPersona)">
    <rect width="1809" height="335" fill="#fafafa"/>
    <text id="Gender_Neutral" data-name="Gender Neutral" transform="translate(844 101)" fill="#0076ff" font-size="30" font-family="RobotoMono-Bold, Roboto Mono" font-weight="700"><tspan x="0" y="0">Gender Neutral</tspan></text>
    <text id="Casual_to_match_FOCUS_Brand_s_laid_back_culture" data-name="Casual to match FOCUS Brand’s laid back culture" transform="translate(844 154)" fill="#0076ff" font-size="30" font-family="RobotoMono-Bold, Roboto Mono" font-weight="700"><tspan x="0" y="0">Casual to match FOCUS Brand’s laid back culture</tspan></text>
    <text id="Empathetic_warm" data-name="Empathetic &amp; warm" transform="translate(844 207)" fill="#0076ff" font-size="30" font-family="RobotoMono-Bold, Roboto Mono" font-weight="700"><tspan x="0" y="0">Empathetic &amp; warm</tspan></text>
    <text id="Patient" transform="translate(844 260)" fill="#0076ff" font-size="30" font-family="RobotoMono-Bold, Roboto Mono" font-weight="700"><tspan x="0" y="0">Patient</tspan></text>
    <g id="Group_20" data-name="Group 20" transform="translate(-60 3)">
      <rect id="Rectangle_7" data-name="Rectangle 7" width="134" height="109" rx="39" transform="translate(397 123)" fill="url(#linear-gradient)"/>
      <rect id="Rectangle_8" data-name="Rectangle 8" width="106" height="66" rx="6" transform="translate(501 79)" fill="#cee4fd"/>
      <rect id="Rectangle_9" data-name="Rectangle 9" width="76" height="8" rx="4" transform="translate(516 93)" fill="#3a93ff"/>
      <rect id="Rectangle_10" data-name="Rectangle 10" width="76" height="8" rx="4" transform="translate(516 109)" fill="#3a93ff"/>
      <rect id="Rectangle_11" data-name="Rectangle 11" width="76" height="8" rx="4" transform="translate(516 125)" fill="#3a93ff"/>
      <rect id="Rectangle_12" data-name="Rectangle 12" width="4" height="30" transform="translate(462 93)" fill="#3a93ff"/>
      <path id="Rectangle_13" data-name="Rectangle 13" d="M10,0H29A10,10,0,0,1,39,10v0a0,0,0,0,1,0,0H0a0,0,0,0,1,0,0v0A10,10,0,0,1,10,0Z" transform="translate(444 113)" fill="#2f77ff"/>
      <circle id="Ellipse_6" data-name="Ellipse 6" cx="7" cy="7" r="7" transform="translate(430 154)" fill="#e6f1ff"/>
      <circle id="Ellipse_7" data-name="Ellipse 7" cx="7" cy="7" r="7" transform="translate(483 154)" fill="#e6f1ff"/>
      <path id="Path_13" data-name="Path 13" d="M30,15A15,15,0,0,1,0,15C0,6.716,30,6.716,30,15Z" transform="translate(447 185)" fill="#fff"/>
      <circle id="Ellipse_5" data-name="Ellipse 5" cx="8" cy="8" r="8" transform="translate(456 79)" fill="#2f77ff"/>
    </g>
  </g>
</svg>
