<svg xmlns="http://www.w3.org/2000/svg" xmlns:xlink="http://www.w3.org/1999/xlink" width="1197" height="338" viewBox="0 0 1197 338">
  <defs>
    <clipPath id="clip-userGoals">
      <rect width="1197" height="338"/>
    </clipPath>
  </defs>
  <g id="userGoals" clip-path="url(#clip-userGoals)">
    <rect width="1197" height="338" fill="#f7f7f7"/>
    <g id="Symbols" transform="translate(167.947 182.715)">
      <g id="Bottom_Sitting_Baggy-Pants" data-name="Bottom/Sitting/Baggy-Pants" transform="translate(0 0)">
        <path id="LegLower" d="M269.134,107.9q-16.153-19.724-21.858-29.246c-6.513-10.868-11.844-20.539-13.526-24.233-4.012-8.809,9.235-12.934,12.233-8.825q6.806,9.329,29.072,58.709Z" transform="translate(-167.548 -20.133)" fill="#b28b67" fill-rule="evenodd"/>
        <path id="LegLower-2" data-name="LegLower" d="M241.622,101.81l-20.04-50.447c-4.286-9.2,16.413-15.241,19.563-10.961,7.152,9.716,24.149,48.045,26.28,50.94Z" transform="translate(-162.102 -17.864)" fill="#2f3676" fill-rule="evenodd"/>
        <g id="Lower-Leg" transform="translate(61.356 28.782) rotate(39)">
          <path id="LegLower-3" data-name="LegLower" d="M.986,57.166C.436,50.284-.586,26.46.436,15.432c.294-3.169.6-6.233.915-9.107.927-8.543,16.767-8.273,15.509-.157C13.728,26.381,8.214,54.708,7.819,57.155,7.265,60.586,1.331,61.492.986,57.166Z" transform="translate(0 0)" fill="#b28b67" fill-rule="evenodd"/>
        </g>
        <g id="Accessories_Shoe_Flat-Sneaker" data-name="Accessories/Shoe/Flat-Sneaker" transform="translate(27.922 67.927) rotate(30)">
          <path id="shoe" d="M.917,3.315A11.727,11.727,0,0,0,0,6.977a27.406,27.406,0,0,0,.492,4.312H31.3Q32.5,7.319,29.911,7t-4.3-.572L11.295.047a.546.546,0,0,0-.721.276l-.006.014-.92,2.233A9.823,9.823,0,0,1,5.755,3.688a8.815,8.815,0,0,1-3.36-.983h0a1.092,1.092,0,0,0-1.448.538Q.93,3.279.917,3.315Z" transform="translate(0 0)" fill="#e4e4e4" fill-rule="evenodd"/>
        </g>
        <g id="Accessories_Shoe_Flat-Sneaker-2" data-name="Accessories/Shoe/Flat-Sneaker" transform="translate(96.038 82.489)">
          <path id="shoe-2" data-name="shoe" d="M1.917,22.647A11.727,11.727,0,0,0,1,26.309a27.406,27.406,0,0,0,.492,4.312H32.3q1.2-3.97-1.386-4.286t-4.3-.572L12.295,19.379a.546.546,0,0,0-.721.276l-.006.014-.92,2.233A9.823,9.823,0,0,1,6.755,23.02a8.815,8.815,0,0,1-3.36-.983h0a1.092,1.092,0,0,0-1.448.538Q1.93,22.611,1.917,22.647Z" transform="translate(-1 -19.332)" fill="#e4e4e4" fill-rule="evenodd"/>
        </g>
        <path id="Leg-and-Butt" d="M165.432,36.321q-24.985-4.07-33.47-5.567C115.836,27.911,111.134,19.234,113.914.3h29.71q5.9,1.7,49.283,21.066c5.2,2.583,4.235,10.2,3.284,12.71q-.058.154-26.319,45.1l-24.3-15.483,19.909-25.547Q166.266,36.557,165.432,36.321Z" transform="translate(-113.163 -0.302)" fill="#5c63ab" fill-rule="evenodd"/>
      </g>
    </g>
    <text id="_1._Uncover_share_insights_2._Connect_with_BI_team_3._Automate_repetitive_activities" data-name="1. Uncover &amp; share insights
2. Connect with BI team
3. Automate repetitive activities" transform="translate(525 132)" fill="#0076ff" font-size="25" font-family="RobotoMono-Bold, Roboto Mono" font-weight="700"><tspan x="0" y="0">1. Uncover &amp; share insights</tspan><tspan x="0" y="33">2. Connect with BI team</tspan><tspan x="0" y="66">3. Automate repetitive activities</tspan></text>
    <g id="Symbols-2" data-name="Symbols" transform="translate(173.888 68.675)">
      <g id="Head_Front_Rad" data-name="Head/Front/Rad" transform="translate(0)">
        <g id="Head" transform="translate(8.932 8.406)">
          <path id="Path_1" data-name="Path 1" d="M4.341,18.121A14.233,14.233,0,0,1,.555,7.894C1.344-3.349,17-.876,20.04,4.8s2.683,20.07-1.252,21.084c-1.569.4-4.912-.586-8.314-2.637L12.61,38.354H0Z" fill="#b28b67" fill-rule="evenodd"/>
        </g>
        <path id="hair" d="M30.687,17.39a3.941,3.941,0,0,1,.822,1.527,15.441,15.441,0,0,1,.526,1.734,3.818,3.818,0,0,1-.576,3.458,3.965,3.965,0,0,1-2.627,1.138,4.827,4.827,0,0,1-1.862-.236c-.593-.2-1.1-.584-1.68-.825a7.516,7.516,0,0,1-.886,3.693,3.682,3.682,0,0,1-2.742,1.789,5.436,5.436,0,0,1-3.34-.673c-.26-.14-.517-.288-.763-.454a2.139,2.139,0,0,0-.662-.364c-.27-.063-.4.092-.579.289a4.4,4.4,0,0,1-.682.614,4.018,4.018,0,0,1-3.759.646,3.493,3.493,0,0,1-1.533-1.108c-.35-.459-.6-1.186-1.082-1.506-.2-.136-.349.044-.536.177-.28.2-.547.42-.831.614a3.8,3.8,0,0,1-1.291.584c-.676.156-1.61.12-1.8-.765A3.654,3.654,0,0,1,4.807,26.7c.032-.46.066-.92.106-1.379a9.958,9.958,0,0,1,.134-1.028,1.5,1.5,0,0,0,.067-.706c-.1-.229-.549-.1-.742-.107a2.933,2.933,0,0,1-1.116-.245,1.2,1.2,0,0,1-.675-.625,1.122,1.122,0,0,1-.019-.587,1.752,1.752,0,0,0-.036-.6c-.512.252-2.285.812-2.508-.105A1.435,1.435,0,0,1,.242,20.4a7.87,7.87,0,0,1,.827-1.258,11.25,11.25,0,0,1,2.2-2.136,1.443,1.443,0,0,1-.376-2.416,1.787,1.787,0,0,1,1.313-.381,2.9,2.9,0,0,0,.543.043A1.3,1.3,0,0,1,5,14.174a7.318,7.318,0,0,1,2.013.256,6.639,6.639,0,0,1,3.071,1.606.947.947,0,0,0,.71.326c.264,0,.523-.075.787-.082a5.67,5.67,0,0,1,1.976.551A7.455,7.455,0,0,1,14.2,14.2c.292-.642.9-.736,1.5-.792,1.917-.18,3.841.021,5.76.018-1.858-.42-3.778-.593-5.619-1.087-.832-.223-.2-.784.159-1.173A6.762,6.762,0,0,0,17.325,8.9a4,4,0,0,0,3.939,1.6,2.81,2.81,0,0,0,1.674-4.058A5.2,5.2,0,0,0,20.423,4.83a9,9,0,0,0,1.262-2.648A1.9,1.9,0,0,1,22.627,1.1a1.1,1.1,0,0,0,.5-.2c.164-.17.2-.359.413-.505a2.33,2.33,0,0,1,2.887.222,1.884,1.884,0,0,1-.064,2.47c.892.372,2.517.85,2.163,2.24,1.933.128,6.626,3.263,4.032,5.554,1.424.8,2.732,2.771,1.817,4.5a4.407,4.407,0,0,1-3.686,2" transform="translate(34.676 29.948) rotate(180)" fill="#191847" fill-rule="evenodd"/>
      </g>
    </g>
    <g id="Symbols-3" data-name="Symbols" transform="translate(168.109 98.622)">
      <g id="Body_Pointing-Up" data-name="Body/Pointing-Up" transform="translate(0 0)">
        <path id="Skin" d="M186.52-8.843l19.915-5.978a45.113,45.113,0,0,1,10.513-6.344c.958-.18,2.543-.076.562,2.172s-3.965,4.7-3.4,5.644,2.627.232,3.224,1.725q.6,1.493-10.245,2.139L191.6-.373Zm-1.76,35.111L201.52,38.574a45.114,45.114,0,0,1,11.393,4.578c.72.656,1.591,1.986-1.4,1.756s-6.141-.337-6.553.682,1.4,2.238.562,3.613q-.833,1.375-7.874-6.9l-16.6-6.882Z" transform="translate(-127.924 21.224)" fill="#b28b67" fill-rule="evenodd"/>
        <path id="Coat-Back" d="M7.088,0c13.22,14.075,29.344,23.26,51.334,31.407l-4.883,9.765C30.85,39.033,18.72,37.324,9.211,23.227,6.824,19.689,2.557,7.515,0,1.193Z" transform="matrix(0.966, 0.259, -0.259, 0.966, 23.958, 12.515)" fill="#2026a2" fill-rule="evenodd"/>
        <path id="Shirt" d="M90,59.9h40.456Q116.71,17.973,116.412,2.349c-.01-.531-.991-1.467-1.425-1.344A14.926,14.926,0,0,1,104.8,0C95.211,15.425,91.894,34.416,90,59.9Z" transform="translate(-84.709 11.151)" fill="#f2f2f2" fill-rule="evenodd"/>
        <path id="Coat-Front" d="M103.474-4.247c11.6.095,30.411,2.213,52.109-4.753l2.142,10.7c-16.4,10.547-33.005,18.718-47.556,17.557,6.319,27.1,6.027,49.29-7.922,49.29H80.677C77.251,45.528,86.255,13.6,94.6-2.5a2.846,2.846,0,0,1,2.6-1.774h6.268Z" transform="translate(-79.93 15.422)" fill="#1f28cf" fill-rule="evenodd"/>
      </g>
    </g>
    <path id="Path_3" data-name="Path 3" d="M2209.3,178.546h87.2L2239.864,243.4h-89.231Z" transform="translate(-1974.657 -33.177)" fill="#e5e5e5"/>
    <path id="Path_4" data-name="Path 4" d="M2175.47,178.546h36.921L2188.413,206h-37.78Z" transform="translate(-1947.706 -19.011)" fill="#fafafa"/>
    <path id="Path_5" data-name="Path 5" d="M2159.988,178.546h13.905l-9.031,10.342h-14.229Z" transform="translate(-1878.23 -13.724)" fill="#f4f4f4"/>
    <g id="Symbols-4" data-name="Symbols" transform="translate(67.631 68.631)">
      <g id="Scene_Home" data-name="Scene/Home">
        <g id="Clock">
          <circle id="Clock-Frame" cx="38" cy="38" r="38" transform="translate(0.369 0.369)" fill="#f2f2f2"/>
          <ellipse id="Time" cx="2" cy="2.5" rx="2" ry="2.5" transform="translate(36.369 5.369)" fill="rgba(0,0,0,0.1)"/>
          <ellipse id="Time-2" data-name="Time" cx="2.5" cy="2" rx="2.5" ry="2" transform="translate(5.369 36.369)" fill="rgba(0,0,0,0.1)"/>
          <ellipse id="Time-3" data-name="Time" cx="2.5" cy="2" rx="2.5" ry="2" transform="translate(66.369 36.369)" fill="rgba(0,0,0,0.1)"/>
          <ellipse id="Time-4" data-name="Time" cx="2" cy="2.5" rx="2" ry="2.5" transform="translate(36.369 66.369)" fill="rgba(0,0,0,0.1)"/>
          <path id="Hand" d="M52.448,17,53.9,42.338H51Z" transform="translate(-14.079 -4.693)" fill="#afb9c5" fill-rule="evenodd"/>
          <path id="Hand-2" data-name="Hand" d="M1.448,0,2.9,17.375H0Z" transform="translate(52.205 50.158) rotate(135)" fill="#afb9c5" fill-rule="evenodd"/>
          <circle id="Time-5" data-name="Time" cx="3" cy="3" r="3" transform="translate(35.369 35.369)" fill="#c5cfd6"/>
        </g>
      </g>
    </g>
    <path id="Path_2" data-name="Path 2" d="M2300.676,90.426l-48.062,52.367v63.671l48.062-54.609Z" transform="translate(-1999.625 -11.603)" fill="#f4f4f4"/>
    <rect id="Rectangle_1" data-name="Rectangle 1" width="3" height="15" transform="translate(283 155)" fill="#f4f4f4"/>
    <g id="Symbols-5" data-name="Symbols" transform="translate(70.553 145.625)">
      <g id="Scene_Plants" data-name="Scene/Plants" transform="translate(-12.002 -1.002)">
        <path id="Leaf-Bottom" d="M57.527,78.018c1.576.681,3.578-.31,2.618-2.278-1.028-2.108-4.413-1.958-6.321-1.815.192,0,.911,1.945,1.138,2.233A6.485,6.485,0,0,0,57.527,78.018ZM37.8,40.284C37.4,39.973,37.769,40.255,37.8,40.284ZM58.5,68.187a1.825,1.825,0,0,0,.065-2.733c-.926-.932-2.52-.813-3.707-.655-.537.071-3.4.453-2.7.888a2.335,2.335,0,0,1-.286-.119q-.113-.341-.235-.679c.016-.011.03-.022.048-.033-.019.01-.032.02-.049.029a26.449,26.449,0,0,0-3.309-6.347,6.223,6.223,0,0,0,1.511.32c1.512.111,4.61-1.221,2.825-3.133-1.711-1.833-4.111.355-5.924.735a85.63,85.63,0,0,0-6.151-6.836.489.489,0,0,0,.286-.264,12.03,12.03,0,0,0,2.5,1.047c1.11.175,3.368.2,4.146-.828.957-1.262-.188-2.186-1.406-2.354-1.766-.244-4.009.73-5.661,1.395a.556.556,0,0,0-.519.2l-.109.042c-2.194-2.172-4.464-4.266-6.718-6.311h.07a5.824,5.824,0,0,0,1.85.73,4.94,4.94,0,0,0,4.451-.954,2.855,2.855,0,0,0,.169-4.211c-2.642-2.3-6.056,3.44-7.312,3.738-2.29-2.056-4.7-3.962-7.137-5.826a4.158,4.158,0,0,0,.828.124c2.3.1,7.534-2.992,4.577-5.609-2.577-2.28-5.17,2.5-7.06,4.229-2.3-1.736-4.61-3.458-6.862-5.256a6.269,6.269,0,0,0,3.565-.21c1.281-.462,3.33-1.555,2.415-3.27-.931-1.744-3.411-.8-4.695-.162a35.653,35.653,0,0,1-3.321,1.973A43.266,43.266,0,0,1,5.406,17.288,37.865,37.865,0,0,1,1.747,9.141C1.171,7.325.065,4.283.128,1.878-.521,6.72,1.41,12.395,3.39,16.589A36.08,36.08,0,0,0,10.8,26.746c-.6,2.172-6.412,5.565-2.736,7.362,1.952.95,3.8-.893,4.122-2.758a7.816,7.816,0,0,0-.824-4.056q1.41,1.354,2.913,2.612c1.382,1.159,2.793,2.28,4.217,3.386-2.134,2.226-3.942,8.365-.881,9.193,4.52,1.219,1.949-6.891,1.558-8.416a.242.242,0,0,0-.2.089c.018-.142.039-.295.066-.449,2.724,2.1,5.485,4.164,8.163,6.324a11.75,11.75,0,0,0-.824,1.214,13.163,13.163,0,0,0-1.595,2.6c-.642,1.482-1.214,3.821.734,4.571,2.118.817,2.965-1.84,2.9-3.394a20.642,20.642,0,0,0-.6-3.126c-.065-.326.041-1.817-.373-1.156a3.144,3.144,0,0,0-.014-.526q.722.585,1.434,1.183a.559.559,0,0,0-.031.181.538.538,0,0,0,.8.466q.941.8,1.861,1.637c1.3,1.178,2.613,2.39,3.923,3.63-.257.245-.133.56-.372.819s-.727.42-1.01.663a7.156,7.156,0,0,0-1.689,2.323c-.665,1.4-1.467,4.292.717,4.826,2.252.551,3.233-2.247,3.286-3.968a43.753,43.753,0,0,0-.642-4.386c2.423,2.305,4.814,4.7,6.994,7.156a7.959,7.959,0,0,0-2.65,1.767c-.823.891-2.1,2.833-.532,3.743,1.4.806,3-.552,3.513-1.817a17.348,17.348,0,0,0,.3-2.969c.9,1.041,1.769,2.091,2.578,3.147q.809,1.053,1.525,2.166a1.014,1.014,0,0,0-.283.309c-2.236.5-4.927,4.171-2.213,5.257,1.292.516,2.6-.757,3.163-1.774a13.12,13.12,0,0,0,.393-2.038,42.285,42.285,0,0,1,3.374,7.8.493.493,0,0,0-.361.477,6.728,6.728,0,0,0-2.6,2.488c-.436.771-1.2,2.519.215,2.86,1.844.443,2.84-2.39,2.917-3.764.009-.159-.016-.621-.044-1.043a.613.613,0,0,0,.189-.013c.506,1.678.929,3.383,1.285,5.094-.975.371-.873,5.586-.174,6.292,1.562,1.582,2.477-.87,2.332-2.133a8.375,8.375,0,0,0-1.789-3.977c-.093-.123-.068-.118-.081.061a.358.358,0,0,0-.1-.2,22.659,22.659,0,0,0-.036-2.292,53.067,53.067,0,0,0-.993-5.929q-.161-.711-.356-1.409a11.561,11.561,0,0,0,2.368,1.35C55.747,68.632,57.456,69.072,58.5,68.187ZM0,1.878A5.611,5.611,0,0,1,.313,0,14.606,14.606,0,0,0,0,1.878Z" transform="matrix(-0.999, -0.052, 0.052, -0.999, 60.313, 86.286)" fill="#f2f2f2" fill-rule="evenodd"/>
        <g id="Plant-Right" transform="translate(28.437 16.394)" opacity="0.7">
          <path id="Leaf-Me-Alone_" data-name="Leaf-Me-Alone!" d="M20.936,74.151c-4.272-.226-9.266-3.258-9.234-7.925.023-3.39.477-6.726.32-10.13a27.279,27.279,0,0,0-1.637-7.945c-.884-2.464-3.018-4.708-3.365-7.278a10.808,10.808,0,0,1,.933-5.366c.851-1.83.489-1.717-.642-3.447a43.485,43.485,0,0,1-5.4-10.733C.142,15.712-.729,9.273.756,3.484.944,2.749,1.357.083,2.4,0c1.17-.089.472,1.387.359,1.876a32.543,32.543,0,0,0-1.226,9.1c.518,12.568,8.54,21.656,13.217,32.769.261.575.8,1.936,1.173,2.836C16.524,48,17,50.639,17.888,51.74c1.681,2.074.351-1.88.061-2.639-.367-.96-.774-1.982-1.164-2.83C15,42.342,13.007,38.048,11.168,34c9.921-1.189,15.521,11.176,17.316,19.108,1.479,6.535,2.492,21.556-7.547,21.046" transform="matrix(-0.995, 0.105, -0.105, -0.995, 37.007, 107.663)" fill="#69a1ac" fill-rule="evenodd"/>
          <path id="Leaf-Me-Alone_2" data-name="Leaf-Me-Alone!" d="M140.858,78.038c-7.142.567-11.727,5.279-13.861,11.871-1.15,3.552-1.282,7.2-1.921,10.852A23.184,23.184,0,0,1,118,114.328a13.654,13.654,0,0,0-2.831,3.787,16.131,16.131,0,0,0-3.269,4.672,8.628,8.628,0,0,0-.137,7.507,7.7,7.7,0,0,0,2.008,2.467,48.346,48.346,0,0,0-4.757,21.715c.12,4.5.339,8.994.6,13.485.069,1.206.462,3.2,1.051,1.175.54-1.85-.137-4.753-.2-6.686-.3-9.413-.565-17.972,3.31-26.767q.61-1.383,1.286-2.743c.026-.015.051-.034.076-.052l.05.04c.029-.051.068-.112.114-.18a2.426,2.426,0,0,0,.348-.488,3.538,3.538,0,0,0,.735-1.342s0-.006,0-.008a126.722,126.722,0,0,1,7.953-11.243c-.021.026,3.044-4.147,2.57-1.839-.228,1.112-2.483,3.23-3.394,4.408a109.828,109.828,0,0,0-6.345,9.153,4.621,4.621,0,0,0-.908,1.454c-.149.282-.288.566-.425.813,6.965,2.3,12.383-2.334,16.077-7.725l.013-.019a23.426,23.426,0,0,1,3.715-4.147c2.4-1.965,4.971-2.312,7.8-3.279,7.718-2.637,11-12.639,12.042-20.061,1.176-8.373-4.576-21.213-14.617-20.387" transform="translate(-75.163 -53.713)" fill="#89c5cc" fill-rule="evenodd"/>
          <path id="Leaf-Me-Alone_3" data-name="Leaf-Me-Alone!" d="M30.694.714c-8.32,6.534-13.3,16.52-17.461,25.98A128.128,128.128,0,0,0,3.281,59.573C2.173,67.081.906,74.615.289,82.183a80.667,80.667,0,0,0-.277,8.093c0,.222.122,6.243,1.22,5,.624-.708-.111-6.245-.1-7.148A115.811,115.811,0,0,1,2.506,72.952c1.216-8.282,2.13-16.564,4.131-24.7a28.222,28.222,0,0,1,1.042-3.662c.491-1.239.016-.735,1.1-1.1,1.054-.355,2.26-.114,3.368-.59,4.4-1.887,7.355-7.906,9.55-11.819a80.1,80.1,0,0,0,5.937-14.222A105.162,105.162,0,0,0,30.575,6.044a28.946,28.946,0,0,1,.816-3.495,8.082,8.082,0,0,0,.52-1.082c.058-.584-.245-.975-.2-1.467q-.513.346-1.012.714" transform="translate(21.092 4.442) rotate(-8)" fill="#89c5cc" fill-rule="evenodd"/>
          <path id="Base" d="M38,328a22.844,22.844,0,1,0,45.688,0" transform="translate(-26.381 -225.48)" fill="#89c5cc" fill-rule="evenodd"/>
          <path id="Leaf-Me-Alone_4" data-name="Leaf-Me-Alone!" d="M114.207,284.1H113a40.491,40.491,0,0,1,.448-4.524c.968-5.727,4-14.14,10.636-15.069a17.125,17.125,0,0,1,2.238.024,4.035,4.035,0,0,1,1.707-.5c5.654-.417,11.968,4.144,14.695,8.891,2.2,3.827,1.828,8.852.47,12.918-.909,2.722-2.894,6.6-6.2,6.641-4.141.047-4.34-5.07-4.42-8.062-.106-3.977-.609-7.442-3.743-10.154-.73-.632-1.529-1.187-2.267-1.81-1.155-.975-2.432-1.973-2.581-3.586-.205-2.225,1.051-2.625,2.968-2.212.327.07,3.62,1.548,3.132.38a2.171,2.171,0,0,0-1.379-.851,25.82,25.82,0,0,0-4.5-.283c-6.57,1.441-9.128,10.542-9.808,16.325C114.318,282.847,114.259,283.473,114.207,284.1Z" transform="translate(-77.912 -181.508)" fill="#69a1ac" fill-rule="evenodd"/>
        </g>
      </g>
    </g>
  </g>
</svg>
