<svg id="Layer_1" data-name="Layer 1" xmlns="http://www.w3.org/2000/svg" viewBox="0 0 289.46 121.67"><defs><style>.cls-1{fill:#373535;}.cls-2{font-size:3.55px;font-family:Futura;}.cls-3{white-space:pre;}</style></defs><title>moodboard</title><path class="cls-1" d="M94.55,79.19a1.07,1.07,0,0,0-.35.57,0.11,0.11,0,0,0,.17.09,0.56,0.56,0,0,0,.2-0.21l0.2-.25A0.15,0.15,0,0,0,94.55,79.19Z" transform="translate(-47.81 -58.48)"/><path class="cls-1" d="M93.2,81a0.47,0.47,0,0,0-.26.47,0.09,0.09,0,0,0,.16,0,1.2,1.2,0,0,1,.23-0.31C93.44,81.16,93.33,81,93.2,81Z" transform="translate(-47.81 -58.48)"/><path class="cls-1" d="M92.25,82.24a5.06,5.06,0,0,0-.71,1.11,2.62,2.62,0,0,0-.48,1.06,0.11,0.11,0,0,0,.21.05c0.16-.33.18-0.73,0.37-1.05s0.52-.69.77-1C92.48,82.28,92.35,82.14,92.25,82.24Z" transform="translate(-47.81 -58.48)"/><path class="cls-1" d="M90.5,85.14l-0.12.12a0.12,0.12,0,0,0,.17.16l0.12-.12A0.12,0.12,0,0,0,90.5,85.14Z" transform="translate(-47.81 -58.48)"/><path class="cls-1" d="M95.93,83a6.41,6.41,0,0,0-3.1.64c-0.18.09,0,.35,0.16,0.27a8.19,8.19,0,0,1,2.95-.52A0.2,0.2,0,0,0,95.93,83Z" transform="translate(-47.81 -58.48)"/><path class="cls-1" d="M96.7,81.34c-0.94.15-1.85,0.45-2.79,0.6a0.15,0.15,0,0,0,0,.3c1-.13,1.89-0.37,2.83-0.57C97,81.61,96.91,81.3,96.7,81.34Z" transform="translate(-47.81 -58.48)"/><path class="cls-1" d="M98.61,79.58a15.32,15.32,0,0,0-3.14.49c-0.17,0-.18.29,0,0.28,1.05-.09,2.09-0.33,3.14-0.44A0.17,0.17,0,0,0,98.61,79.58Z" transform="translate(-47.81 -58.48)"/><path class="cls-1" d="M99.19,78.45a9.87,9.87,0,0,0-2.36.24c-0.18,0-.1.3,0.08,0.27a13.36,13.36,0,0,1,2.29-.23A0.14,0.14,0,0,0,99.19,78.45Z" transform="translate(-47.81 -58.48)"/><path class="cls-1" d="M90.9,84.4c-0.79-1-2.13-2.64-3.57-2.48a0.16,0.16,0,0,0,0,.31c1.37,0.06,2.29,1.63,3.21,2.45C90.73,84.85,91.06,84.61,90.9,84.4Z" transform="translate(-47.81 -58.48)"/><path class="cls-1" d="M90.74,82.1A3.1,3.1,0,0,0,88,81a0.17,0.17,0,0,0,0,.34,3.18,3.18,0,0,1,2.43,1A0.18,0.18,0,0,0,90.74,82.1Z" transform="translate(-47.81 -58.48)"/><path class="cls-1" d="M91.18,81.18a2.93,2.93,0,0,0-2.23-1,0.13,0.13,0,0,0,0,.27,3.6,3.6,0,0,1,2,.91C91.07,81.47,91.31,81.34,91.18,81.18Z" transform="translate(-47.81 -58.48)"/><path class="cls-1" d="M91.9,80.41A1.92,1.92,0,0,0,89.6,79a0.21,0.21,0,0,0,.12.41c0.89-.22,1.44.53,1.9,1.15A0.16,0.16,0,0,0,91.9,80.41Z" transform="translate(-47.81 -58.48)"/><path class="cls-1" d="M92.94,79.43A3.43,3.43,0,0,0,92,78.36a3.34,3.34,0,0,0-1.14-.69c-0.27-.09-0.37.34-0.1,0.43a7.62,7.62,0,0,1,1.91,1.54A0.17,0.17,0,0,0,92.94,79.43Z" transform="translate(-47.81 -58.48)"/><path class="cls-1" d="M94.62,78c-0.62-.94-1.86-2-3-1.26a0.26,0.26,0,0,0,.27.44c0.93-.56,1.72.62,2.39,1.11C94.46,78.43,94.77,78.24,94.62,78Z" transform="translate(-47.81 -58.48)"/><path d="M107.28,75.24c-1.63-.82-3.66-0.3-5.37,0a23.16,23.16,0,0,0-4.16.88,0.34,0.34,0,0,0-.14-0.24A10.16,10.16,0,0,0,92.49,74c-1.59-.2-3.6-0.32-5,0.58a0.16,0.16,0,0,0,.13.3,9.83,9.83,0,0,1,1.26-.25,46.72,46.72,0,0,0-3.63,4.15,15.19,15.19,0,0,0-2.75,4.1,0.23,0.23,0,0,0,0,.09c-0.37,0-.73,0-1.1,0a2.06,2.06,0,0,0,.49-1.06,19.24,19.24,0,0,0-.1-2c0.07-1.08.84-1.16,1.48-1.69,0.89-.73,1-2.3,1-3.37a4.36,4.36,0,0,0-5-4.57c-0.25,0-.51.1-0.76,0.16a6,6,0,0,0-1.92.56,5.51,5.51,0,0,0-1.35.94c-0.21.15-.41,0.3-0.6,0.46-1.37,1.18-1.83,3-2.28,4.65a0.39,0.39,0,0,0,.14.44,22.38,22.38,0,0,1-.72,3.61h0a1.16,1.16,0,0,1-.67.71L71,81.9l0.23,0-0.51.4A13.35,13.35,0,0,0,61,87.6a17.21,17.21,0,0,0-3.1,6c-0.39,1.4-.67,2.82-1,4.22s-1,3-1.28,4.59a0.38,0.38,0,0,0,.73.18c0.51-2.54,1.37-5,2-7.57A18.85,18.85,0,0,1,61,88.65a14,14,0,0,1,9.14-5.9c-0.55.42-1.09,0.86-1.6,1.32a6.3,6.3,0,0,0-1.32,1.07,7.46,7.46,0,0,0-1.78,4.17c-0.25,1.88-.27,3.27-1.79,4.58A1.76,1.76,0,0,0,63,96.21c0.91,2.14,3,3.91,5.32,3A5.17,5.17,0,0,0,71,96.78c0.39-.82.34-1.59,0.65-2.24,0.18-.24.37-0.48,0.57-0.7a2.52,2.52,0,0,1,.32-0.22c1.07-.59,2.42-1,3-2.24a3.24,3.24,0,0,0,.18-1.54V89.79a13.58,13.58,0,0,1,.63-1.69,4.76,4.76,0,0,1,.71-1L77.24,87a3.65,3.65,0,0,0,2.37-1.67c0.12-.27.09-0.6,0.2-0.86,0.55-1.21.63-.54,1.2-1.11l0.07-.07c2.76,0.24,5.5.91,7.43,3.06a11.16,11.16,0,0,1,2.34,3.84,20.88,20.88,0,0,1,.57,4.86,20,20,0,0,1-.93,7.46,1.68,1.68,0,0,1,.89.39v0a23,23,0,0,0,.71-10.3,12,12,0,0,0-1-3.86c1.53-.13,3.05-0.37,4.59-0.49a12.85,12.85,0,0,1,3.36,0,0.43,0.43,0,0,0,.72.22,2,2,0,0,1,.88.72,0.39,0.39,0,0,0,.7-0.3,1.48,1.48,0,0,0-1-1.1c1.14-1.56,1.62-3.56,2.86-5.07a20.08,20.08,0,0,0,2-2.69c0.72-1.27,1-2.67,2-3.81a0.2,0.2,0,0,0,0-.24A0.36,0.36,0,0,0,107.28,75.24Zm-2,3A13.56,13.56,0,0,1,102.84,82,12.2,12.2,0,0,0,101,84.63a16.53,16.53,0,0,1-1.59,2.86,12,12,0,0,0-2.48-.06,35.48,35.48,0,0,0-6,1,9.82,9.82,0,0,0-1.21-1.82,0.13,0.13,0,0,0,.15,0c0.14-.13.23-0.31,0.36-0.46s-0.08-.3-0.19-0.18a2,2,0,0,0-.37.53,0.09,0.09,0,0,0,0,.06,10.21,10.21,0,0,0-1.32-1.3A10.4,10.4,0,0,0,82.9,83a20,20,0,0,1,3.19-4.19c1.2-1.4,2.43-2.75,3.7-4.09a0.35,0.35,0,0,0,.1-0.2A11.23,11.23,0,0,1,97,76.4a8.29,8.29,0,0,0-1.49.9,0.14,0.14,0,0,0,.14.24c1.92-1.18,3.78-1.27,5.94-1.57,1.69-.24,3.64-0.78,5.29-0.1A5.49,5.49,0,0,0,105.32,78.28Z" transform="translate(-47.81 -58.48)"/><text class="cls-2" transform="translate(1.6 4.91)">H<tspan x="2.6" y="0">o</tspan><tspan x="4.67" y="0">w do I </tspan><tspan x="16.01" y="0">r</tspan><tspan x="17.31" y="0">ead</tspan><tspan x="0" y="4.26">and w</tspan><tspan x="10.04" y="4.26">r</tspan><tspan x="11.43" y="4.26">i</tspan><tspan x="12.31" y="4.26">t</tspan><tspan x="13.31" y="4.26">e </tspan><tspan x="16.37" y="4.26">f</tspan><tspan x="17.48" y="4.26">as</tspan><tspan x="21.04" y="4.26">t</tspan><tspan x="22.05" y="4.26">er </tspan><tspan x="0" y="8.52">?</tspan></text><path d="M99.18,102.23H56.49c-0.5,0-.58.79-0.07,0.79H99.11C99.61,103,99.69,102.23,99.18,102.23Z" transform="translate(-47.81 -58.48)"/><path d="M144.45,87.54h0.62a0.4,0.4,0,0,0,.43-0.36,36.82,36.82,0,0,1,3.64-14.25,0.4,0.4,0,0,0-.34-0.53c-2.89-.57-5,0.06-7.68.82-1.31.37-2.56-.45-3.88-0.69a12.38,12.38,0,0,0-4.16,0,0.35,0.35,0,0,0-.31.35,6.28,6.28,0,0,0-2-1.69,4.82,4.82,0,0,0-6,1.16,3.21,3.21,0,0,0-2.12,3.83,8.31,8.31,0,0,0,1.75,3.24,11.35,11.35,0,0,1,1.53,2.41,3.13,3.13,0,0,1,0,2.6,0.4,0.4,0,0,0-.29,0,21.43,21.43,0,0,0-14.13,17.92,0.39,0.39,0,0,0,.79.07,20.66,20.66,0,0,1,13.16-17.08l-0.32.53a2.94,2.94,0,0,0-.4,2.56c0.17,0.57.56,1.05,0.77,1.6,0.64,1.66,0,2.68-.95,4-0.72,1-1.56,2.19-1.44,3.5s1.25,1.76,1.81,2.84-0.11,2.62.81,3.43a1.75,1.75,0,0,0,1.08.38,4.37,4.37,0,0,0,1.29,1.14H117.15c-0.5,0-.58.79-0.07,0.79H148c0.5,0,.58-0.79.07-0.79H132.42a5.66,5.66,0,0,0,2-1.72c1.93-2.64,1.95-6.45,1.49-9.89a28.43,28.43,0,0,0,.47-8.54l0.27,0a0.39,0.39,0,0,0,.74.13,17.1,17.1,0,0,1,4.93,1.82,0.33,0.33,0,0,0,.33.43h0.39a17,17,0,0,1,8,13.66c0,0.51.8,0.37,0.78-.13A17.73,17.73,0,0,0,144.45,87.54Zm-7.58-3.12-0.55-.08a27.8,27.8,0,0,0-.78-3.91l2.26,0.43h0.09Zm0.78,0.14,2.64-9.17c0.14-.49-0.6-0.76-0.74-0.27l-1.46,5.08a0.39,0.39,0,0,0-.21-0.12l-2.28-.43a0.33,0.33,0,0,0-.27.06c-0.16-.52-0.33-1-0.52-1.56a11.17,11.17,0,0,0-1.7-4.85h0.13a11.41,11.41,0,0,1,5.17.31,7.58,7.58,0,0,0,2.13.78,6.71,6.71,0,0,0,1.24-.61,12,12,0,0,1,2.44-.72,11.44,11.44,0,0,1,4,0,37.31,37.31,0,0,0-3.46,13.67l-1.45,0A17.87,17.87,0,0,0,137.65,84.57Z" transform="translate(-47.81 -58.48)"/><path d="M143.08,81.43a5.31,5.31,0,0,0-4.44,1,0.39,0.39,0,0,0,.51.6,4.55,4.55,0,0,1,3.86-.84C143.51,82.33,143.57,81.54,143.08,81.43Z" transform="translate(-47.81 -58.48)"/><path d="M143.73,79.6a3.46,3.46,0,0,0-3.86.39,0.39,0.39,0,0,0,.51.6,2.64,2.64,0,0,1,2.9-.34C143.72,80.48,144.18,79.84,143.73,79.6Z" transform="translate(-47.81 -58.48)"/><path d="M143.95,77.19a4.41,4.41,0,0,0-3.45.36c-0.44.25-.11,1,0.33,0.71a3.62,3.62,0,0,1,2.85-.33C144.17,78.07,144.44,77.33,143.95,77.19Z" transform="translate(-47.81 -58.48)"/><path d="M144.79,75.73a3.61,3.61,0,0,0-3.54-.26,0.39,0.39,0,0,0,.33.71,2.8,2.8,0,0,1,2.76.2A0.39,0.39,0,0,0,144.79,75.73Z" transform="translate(-47.81 -58.48)"/><path d="M138.43,76.87l-3.26-.55c-0.5-.08-0.57.7-0.07,0.79l3.26,0.55C138.86,77.74,138.93,77,138.43,76.87Z" transform="translate(-47.81 -58.48)"/><path d="M137.65,78.14l-2.17-.33c-0.5-.08-0.57.71-0.07,0.79l2.17,0.33C138.09,79,138.15,78.21,137.65,78.14Z" transform="translate(-47.81 -58.48)"/><text class="cls-2" transform="translate(92.58 4.93)">W<tspan x="3.55" y="0">ait! This is </tspan><tspan x="0" y="4.26">so beautiful!</tspan></text><path d="M225.37,90.67c-2.08-1.16-4.63-1.48-7.21-1.75,5.41-3.53-6.08-13.21-8.45-15.32s-5.47-3.87-8.89-3.61a6.88,6.88,0,0,0-6.41,5,0.37,0.37,0,0,0,.14.38v0a5.24,5.24,0,0,0-3,3.28,5.1,5.1,0,0,0-.17,2.31v0c-0.14,1,0,2.08-.48,2.66-0.71.86-1.95,1.13-2.67,2.07a3.88,3.88,0,0,0-.89,2.81,3.25,3.25,0,0,0,1.26,2.17,4,4,0,0,0,1,.67,16.23,16.23,0,0,0-2.81,2.14,17.92,17.92,0,0,0-5.54,12.85c0,0.46.71,0.53,0.71,0.06a17.24,17.24,0,0,1,6.89-13.72,12.36,12.36,0,0,1,2-1.2,3.9,3.9,0,0,0,.67,0,13,13,0,0,0,4.86-2.17,9.81,9.81,0,0,0,5.15-4.07,1.27,1.27,0,0,0,.11-1.47,4.1,4.1,0,0,0,2.08.74,3.16,3.16,0,0,0,2.52-1,3.53,3.53,0,0,0,.17.9l0,0.07a3.77,3.77,0,0,0,1.49,1.87c3.34,3.13,8.67,2.75,13,3.55a12.25,12.25,0,0,1,10.15,13.7c-0.06.46,0.65,0.52,0.71,0.06A13,13,0,0,0,225.37,90.67Zm-18-12.12c-0.17,2.71-2.25,7-5.51,4.42a7.35,7.35,0,0,1-1-1c-0.3-.65-0.67-1.27-1-1.87l-0.94-1.87a9.06,9.06,0,0,1,.47-2.26,1.31,1.31,0,0,0,.31-0.39c1.19-2.36,4.48-.84,6,0.13l1.46,0.94A5.58,5.58,0,0,1,207.39,78.55Z" transform="translate(-47.81 -58.48)"/><text class="cls-2" transform="translate(165.47 4.32)">Damn! I need <tspan x="22.97" y="0">t</tspan><tspan x="23.96" y="0">o </tspan><tspan x="0" y="4.26">open </tspan><tspan x="9.27" y="4.26">m</tspan><tspan x="12.02" y="4.26">y la</tspan><tspan x="18.05" y="4.26">p</tspan><tspan x="20.21" y="4.26">t</tspan><tspan x="21.21" y="4.26">op. </tspan><tspan x="0" y="8.52">I am gonna s</tspan><tspan x="20.99" y="8.52">a</tspan><tspan x="23.15" y="8.52">v</tspan><tspan x="24.87" y="8.52">e it! </tspan><tspan x="0" y="12.78">Done!</tspan></text><path d="M231.86,105.72h-12.7L222,92.81a0.39,0.39,0,0,0-.26-0.41,15.45,15.45,0,0,0-13,1.59c-1.12.71-1.5,1.3-2.84,1a23.23,23.23,0,0,0-3.34-.65,15.65,15.65,0,0,0-7.3,1.24,0.63,0.63,0,0,0-.28.64l4.85,9.5H185.2c-0.5,0-.58.79-0.07,0.79h15.08a0.41,0.41,0,0,0,.48,0h17.49l-0.08.36c-0.11.5,0.68,0.56,0.79,0.07l0.09-.43h12.8C232.29,106.51,232.37,105.72,231.86,105.72Zm-31.2,0-4.87-9.52a14.69,14.69,0,0,1,11,0,0.39,0.39,0,0,0,.39-0.07,14.61,14.61,0,0,1,6.12-3.27c2-.51,5-0.91,7,0,0.51,0.22.58,0.1,0.73,0.68a9.38,9.38,0,0,1-.48,2.23l-0.72,3.35-1.44,6.67h-17.7Z" transform="translate(-47.81 -58.48)"/><path d="M207.41,99.59a3.33,3.33,0,0,0-5,.56,0.39,0.39,0,0,0,.65.45,2.53,2.53,0,0,1,3.77-.49C207.18,100.45,207.78,99.94,207.41,99.59Z" transform="translate(-47.81 -58.48)"/><path d="M208.34,103.22a3,3,0,0,0-3.83,0,0.39,0.39,0,0,0,.51.6,2.23,2.23,0,0,1,2.87,0C208.29,104.19,208.74,103.54,208.34,103.22Z" transform="translate(-47.81 -58.48)"/><path d="M215,96.14a5.36,5.36,0,0,0-4.56,2c-0.32.4,0.33,0.84,0.65,0.45a4.52,4.52,0,0,1,3.84-1.71A0.39,0.39,0,0,0,215,96.14Z" transform="translate(-47.81 -58.48)"/><path d="M215.2,98.6a3.59,3.59,0,0,0-3.1,1.42c-0.31.4,0.34,0.85,0.65,0.45a2.76,2.76,0,0,1,2.38-1.08A0.39,0.39,0,0,0,215.2,98.6Z" transform="translate(-47.81 -58.48)"/><path d="M215.68,101.19l-2.35.4a0.39,0.39,0,0,0,.13.78l2.35-.4A0.39,0.39,0,0,0,215.68,101.19Z" transform="translate(-47.81 -58.48)"/><path d="M205.67,80.93a1.85,1.85,0,0,0-2.67.59c-0.23.44,0.41,0.9,0.65,0.45a1.06,1.06,0,0,1,1.57-.39A0.39,0.39,0,0,0,205.67,80.93Z" transform="translate(-47.81 -58.48)"/><text class="cls-2" transform="translate(249.35 3.13)">Coming ba<tspan x="17.73" y="0">c</tspan><tspan x="19.52" y="0">k</tspan><tspan x="21.34" y="0">.. </tspan><tspan x="24.62" y="0">w</tspan><tspan x="27.31" y="0">ait </tspan><tspan x="0" y="4.26">whe</tspan><tspan x="6.66" y="4.26">r</tspan><tspan x="7.96" y="4.26">e I </tspan><tspan x="13.16" y="4.26">w</tspan><tspan class="cls-3" x="15.85" y="4.26">as ?  I lost </tspan><tspan x="33.1" y="4.26">m</tspan><tspan x="35.85" y="4.26">y </tspan><tspan x="0" y="8.52">t</tspan><tspan x="0.97" y="8.52">r</tspan><tspan x="2.27" y="8.52">ain of </tspan><tspan x="12.61" y="8.52">t</tspan><tspan x="13.65" y="8.52">houghts</tspan></text><path d="M284.28,86.55A6.08,6.08,0,0,0,274.86,89c-0.21.47,0.54,0.73,0.74,0.27a5.28,5.28,0,0,1,8.23-2A0.39,0.39,0,0,0,284.28,86.55Z" transform="translate(-47.81 -58.48)"/><path d="M284.07,89.68a10,10,0,0,0-5.73,2.14,0.39,0.39,0,0,0,.51.6,9.26,9.26,0,0,1,5.35-2C284.71,90.43,284.57,89.65,284.07,89.68Z" transform="translate(-47.81 -58.48)"/><path d="M298.68,80.87l-8.38,1.9c-0.49.11-.36,0.89,0.13,0.78l8.38-1.9C299.31,81.54,299.18,80.76,298.68,80.87Z" transform="translate(-47.81 -58.48)"/><path d="M300.61,85.74l-7,1.9c-0.49.13-.36,0.91,0.13,0.78l7-1.9C301.23,86.39,301.1,85.61,300.61,85.74Z" transform="translate(-47.81 -58.48)"/><path d="M289.19,95.05l-7.33,1.34a0.37,0.37,0,0,0-.36,0l-0.53.22a0.4,0.4,0,0,0,.23.75l8.13-1.49A0.39,0.39,0,0,0,289.19,95.05Z" transform="translate(-47.81 -58.48)"/><path d="M319.55,96.83C316,94.44,312.5,92,309,89.68l-0.9-.58-0.58-12.21a0.39,0.39,0,0,0-.25-0.3,23.81,23.81,0,0,0-17.63.31L292,70.53a0.39,0.39,0,0,0-.74-0.27l-0.1.27a0.42,0.42,0,0,0-.45-0.43l-26.45,1.58a0.36,0.36,0,0,0-.21.63l-5.24,18.12a0.4,0.4,0,0,0,0,.13l-11.11,12.12a0.41,0.41,0,0,0-.1.38,0.34,0.34,0,0,0,.31.5l27.22-.33c0.5,0,.58-0.79.07-0.79l-26.53.33L259.38,91.1h0.06l10.22-.65a94.82,94.82,0,0,1,4.95,9.72,0.32,0.32,0,0,0,0,.32l3,5.14a0.4,0.4,0,0,0,.73,0c2.31-5.19,9.49-5.22,14.31-6q8-1.26,16-2.51a0.39,0.39,0,0,0-.13-0.78l-0.14,0,0-.8a29.17,29.17,0,0,1,4.12,3.21l5.54,4.68c0.39,0.33.83-.32,0.45-0.65-2.78-2.35-5.49-4.88-8.41-7.05a13,13,0,0,0-1.7-1.09,1.77,1.77,0,0,1-.91-0.41,6.27,6.27,0,0,0-.62-0.2c-1.46-.38-4.67.23-5.44-1.46l0.15,0a0.42,0.42,0,0,0,.3-0.37l2.39,0.06a0.4,0.4,0,0,0,.26-0.72A7.39,7.39,0,0,0,300,90.07L301.4,89a0.32,0.32,0,0,0,.31,0c1.84-1.13,3.77-.54,5.57.49v0.06A2.08,2.08,0,0,1,308,90l0.1,0.13V90c0.43,0.28.85,0.58,1.26,0.87a1.72,1.72,0,0,1,.84.6L311,92l8.11,5.46A0.39,0.39,0,0,0,319.55,96.83Zm-59.87-6.51,5.17-17.88,26-1.56a0.32,0.32,0,0,0,.21-0.09l-2.51,6.55a23,23,0,0,0-3.38,2c-0.64.45-1.58,1.59-2.33,1.7s-2-.62-2.79-0.8a13.95,13.95,0,0,0-13.27,4.24v0c-0.29-.42-0.88.1-0.6,0.51q1.59,2.34,3,4.76Zm41.8-2.09a0.38,0.38,0,0,0-.39,0l-2.41,1.82-3.59-.35a0.36,0.36,0,0,0-.31.11l-0.4,0a0.4,0.4,0,0,0-.17.76,11.8,11.8,0,0,0,6.23,1.23c0,0.08,0,.16,0,0.24l-2.1.66c-0.48.15-.35,0.93,0.13,0.78l2.15-.67c0.93,2.31,4.77,1.43,6.76,2.26l0.17,0.08,0.06,1.33q-9,1.39-17.89,2.81c-4.31.68-9.43,1.24-11.75,5.36l-2.55-4.36a0.37,0.37,0,0,0,0-.26,94.52,94.52,0,0,0-5-9.83,0.43,0.43,0,0,0-.31-0.53q-1.37-2.31-2.86-4.55A13.12,13.12,0,0,1,282.81,82,0.38,0.38,0,0,0,283.2,82a22.63,22.63,0,0,1,5.22-3.65,0.4,0.4,0,0,0,.66-0.12l0.09-.24a23,23,0,0,1,13-1.9,21.09,21.09,0,0,1,2.78.61c1,0.3,1.54.39,1.75,1.51a46.08,46.08,0,0,1,.29,6.08l0.21,4.39C305.43,87.65,303.44,87.08,301.48,88.22Z" transform="translate(-47.81 -58.48)"/><path d="M261.22,93.07l-1.33.38c-0.48.14-.35,0.92,0.13,0.78l1.33-.38C261.84,93.71,261.71,92.93,261.22,93.07Z" transform="translate(-47.81 -58.48)"/><path d="M265.9,92.89h-1a0.41,0.41,0,0,0-.43.36,0.4,0.4,0,0,0,.36.43h1a0.41,0.41,0,0,0,.43-0.36A0.4,0.4,0,0,0,265.9,92.89Z" transform="translate(-47.81 -58.48)"/><path d="M270.47,92.89h-1a0.41,0.41,0,0,0-.43.36,0.4,0.4,0,0,0,.36.43h1a0.41,0.41,0,0,0,.43-0.36A0.4,0.4,0,0,0,270.47,92.89Z" transform="translate(-47.81 -58.48)"/><path d="M260.76,96.13h-1.9c-0.5,0-.58.79-0.07,0.79h1.9C261.19,96.92,261.26,96.13,260.76,96.13Z" transform="translate(-47.81 -58.48)"/><path d="M267.12,95.54l-1.33.19a0.39,0.39,0,0,0,.13.78l1.33-.19A0.39,0.39,0,0,0,267.12,95.54Z" transform="translate(-47.81 -58.48)"/><path d="M272,95.37h-1.52c-0.5,0-.58.79-0.07,0.79h1.52C272.42,96.15,272.5,95.37,272,95.37Z" transform="translate(-47.81 -58.48)"/><path d="M260.08,98.58l-1.9.19c-0.51,0-.37.83,0.13,0.78l1.9-.19C260.72,99.3,260.58,98.53,260.08,98.58Z" transform="translate(-47.81 -58.48)"/><path d="M265.52,98.8H264c-0.5,0-.58.79-0.07,0.79h1.52C265.95,99.58,266,98.8,265.52,98.8Z" transform="translate(-47.81 -58.48)"/><path d="M271.31,98.52l-2.09.2c-0.51,0-.37.83,0.13,0.78l2.09-.2C271.95,99.25,271.81,98.47,271.31,98.52Z" transform="translate(-47.81 -58.48)"/><path d="M273.51,98.8h-0.38a0.41,0.41,0,0,0-.43.36,0.4,0.4,0,0,0,.36.43h0.38a0.41,0.41,0,0,0,.43-0.36A0.4,0.4,0,0,0,273.51,98.8Z" transform="translate(-47.81 -58.48)"/><path d="M294.86,100.94a17,17,0,0,0-12.51,2.89c-0.42.29,0.1,0.89,0.51,0.6a16.2,16.2,0,0,1,11.93-2.7C295.29,101.81,295.36,101,294.86,100.94Z" transform="translate(-47.81 -58.48)"/><path d="M307.59,97.86a30.19,30.19,0,0,0-11.45,2.66,0.39,0.39,0,0,0,.33.71,29.13,29.13,0,0,1,11-2.58C308,98.63,308.1,97.84,307.59,97.86Z" transform="translate(-47.81 -58.48)"/><path d="M84.89,147.79h0.62a0.4,0.4,0,0,0,.43-0.36,36.82,36.82,0,0,1,3.64-14.25,0.4,0.4,0,0,0-.34-0.53c-2.89-.57-5,0.06-7.68.82-1.31.37-2.56-.45-3.88-0.69a12.38,12.38,0,0,0-4.16,0,0.35,0.35,0,0,0-.31.35,6.28,6.28,0,0,0-2-1.69,4.82,4.82,0,0,0-6,1.16,3.21,3.21,0,0,0-2.12,3.83,8.31,8.31,0,0,0,1.75,3.24,11.35,11.35,0,0,1,1.53,2.41,3.13,3.13,0,0,1,0,2.6,0.4,0.4,0,0,0-.29,0,21.43,21.43,0,0,0-14.13,17.92,0.39,0.39,0,0,0,.79.07,20.66,20.66,0,0,1,13.16-17.08l-0.32.53a2.94,2.94,0,0,0-.4,2.56c0.17,0.57.56,1.05,0.77,1.6,0.64,1.66,0,2.68-.95,4-0.72,1-1.56,2.19-1.44,3.5s1.25,1.76,1.81,2.84-0.11,2.62.81,3.43a1.75,1.75,0,0,0,1.08.38,4.37,4.37,0,0,0,1.29,1.14H57.58c-0.5,0-.58.79-0.07,0.79h30.9c0.5,0,.58-0.79.07-0.79H72.86a5.66,5.66,0,0,0,2-1.72c1.93-2.64,1.95-6.45,1.49-9.89a28.43,28.43,0,0,0,.47-8.54l0.27,0a0.39,0.39,0,0,0,.74.13,17.1,17.1,0,0,1,4.93,1.82,0.33,0.33,0,0,0,.33.43h0.39a17,17,0,0,1,8,13.66c0,0.51.8,0.37,0.78-.13A17.73,17.73,0,0,0,84.89,147.79Zm-7.58-3.12-0.55-.08a27.8,27.8,0,0,0-.78-3.91l2.26,0.43h0.09Zm0.78,0.14,2.64-9.17c0.14-.49-0.6-0.76-0.74-0.27l-1.46,5.08a0.39,0.39,0,0,0-.21-0.12L76,139.9a0.33,0.33,0,0,0-.27.06c-0.16-.52-0.33-1-0.52-1.56a11.17,11.17,0,0,0-1.7-4.85h0.13a11.41,11.41,0,0,1,5.17.31,7.58,7.58,0,0,0,2.13.78,6.71,6.71,0,0,0,1.24-.61,12,12,0,0,1,2.44-.72,11.44,11.44,0,0,1,4,0A37.31,37.31,0,0,0,85.17,147l-1.45,0A17.87,17.87,0,0,0,78.08,144.81Z" transform="translate(-47.81 -58.48)"/><path d="M83.52,141.68a5.31,5.31,0,0,0-4.44,1,0.39,0.39,0,0,0,.51.6,4.55,4.55,0,0,1,3.86-.84C83.94,142.57,84,141.78,83.52,141.68Z" transform="translate(-47.81 -58.48)"/><path d="M84.16,139.85a3.46,3.46,0,0,0-3.86.39,0.39,0.39,0,0,0,.51.6,2.64,2.64,0,0,1,2.9-.34C84.16,140.73,84.61,140.08,84.16,139.85Z" transform="translate(-47.81 -58.48)"/><path d="M84.38,137.43a4.41,4.41,0,0,0-3.45.36c-0.44.25-.11,1,0.33,0.71a3.62,3.62,0,0,1,2.85-.33C84.6,138.31,84.87,137.57,84.38,137.43Z" transform="translate(-47.81 -58.48)"/><path d="M85.23,136a3.61,3.61,0,0,0-3.54-.26,0.39,0.39,0,0,0,.33.71,2.8,2.8,0,0,1,2.76.2A0.39,0.39,0,0,0,85.23,136Z" transform="translate(-47.81 -58.48)"/><path d="M78.86,137.11l-3.26-.55c-0.5-.08-0.57.7-0.07,0.79l3.26,0.55C79.29,138,79.36,137.19,78.86,137.11Z" transform="translate(-47.81 -58.48)"/><path d="M78.09,138.38L75.91,138c-0.5-.08-0.57.71-0.07,0.79L78,139.17C78.52,139.24,78.59,138.46,78.09,138.38Z" transform="translate(-47.81 -58.48)"/><text class="cls-2" transform="translate(0 72.14)">A<tspan x="2.63" y="0">f</tspan><tspan x="3.81" y="0">t</tspan><tspan x="4.81" y="0">er one </tspan><tspan x="0" y="4.26">mon</tspan><tspan x="6.89" y="4.26">t</tspan><tspan x="7.93" y="4.26">h!</tspan></text><text class="cls-2" transform="translate(43.66 71.27)">L<tspan x="1.57" y="0">e</tspan><tspan x="3.57" y="0">t</tspan><tspan x="4.67" y="0">’s s</tspan><tspan x="9.8" y="0">t</tspan><tspan x="10.8" y="0">a</tspan><tspan x="12.93" y="0">r</tspan><tspan x="14.39" y="0">t </tspan><tspan x="16.45" y="0">t</tspan><tspan x="17.49" y="0">he </tspan><tspan x="0" y="4.26">second </tspan><tspan x="0" y="8.52">c</tspan><tspan x="1.78" y="8.52">ha</tspan><tspan x="5.86" y="8.52">pt</tspan><tspan x="9.02" y="8.52">e</tspan><tspan x="10.98" y="8.52">r</tspan><tspan x="12.12" y="8.52">. </tspan></text><path class="cls-1" d="M147.59,142.42a1.07,1.07,0,0,0-.35.57,0.11,0.11,0,0,0,.17.09,0.56,0.56,0,0,0,.2-0.21l0.2-.25A0.15,0.15,0,0,0,147.59,142.42Z" transform="translate(-47.81 -58.48)"/><path class="cls-1" d="M146.24,144.28a0.47,0.47,0,0,0-.26.47,0.09,0.09,0,0,0,.16,0,1.2,1.2,0,0,1,.23-0.31C146.48,144.39,146.36,144.2,146.24,144.28Z" transform="translate(-47.81 -58.48)"/><path class="cls-1" d="M145.29,145.47a5.06,5.06,0,0,0-.71,1.11,2.62,2.62,0,0,0-.48,1.06,0.11,0.11,0,0,0,.21.05c0.16-.33.18-0.73,0.37-1.05s0.52-.69.77-1C145.52,145.51,145.39,145.37,145.29,145.47Z" transform="translate(-47.81 -58.48)"/><path class="cls-1" d="M143.54,148.37l-0.12.12a0.12,0.12,0,0,0,.17.16l0.12-.12A0.12,0.12,0,0,0,143.54,148.37Z" transform="translate(-47.81 -58.48)"/><path class="cls-1" d="M149,146.28a6.41,6.41,0,0,0-3.1.64c-0.18.09,0,.35,0.16,0.27a8.19,8.19,0,0,1,2.95-.52A0.2,0.2,0,0,0,149,146.28Z" transform="translate(-47.81 -58.48)"/><path class="cls-1" d="M149.74,144.57c-0.94.15-1.85,0.45-2.79,0.6a0.15,0.15,0,0,0,0,.3c1-.13,1.89-0.37,2.83-0.57C150,144.84,149.95,144.53,149.74,144.57Z" transform="translate(-47.81 -58.48)"/><path class="cls-1" d="M151.65,142.81a15.32,15.32,0,0,0-3.14.49c-0.17,0-.18.29,0,0.28,1.05-.09,2.09-0.33,3.14-0.44A0.17,0.17,0,0,0,151.65,142.81Z" transform="translate(-47.81 -58.48)"/><path class="cls-1" d="M143.93,147.63c-0.79-1-2.13-2.64-3.57-2.48a0.16,0.16,0,0,0,0,.31c1.37,0.06,2.29,1.63,3.21,2.45C143.77,148.08,144.1,147.84,143.93,147.63Z" transform="translate(-47.81 -58.48)"/><path class="cls-1" d="M143.78,145.33a3.1,3.1,0,0,0-2.72-1.12,0.17,0.17,0,0,0,0,.34,3.18,3.18,0,0,1,2.43,1A0.18,0.18,0,0,0,143.78,145.33Z" transform="translate(-47.81 -58.48)"/><path class="cls-1" d="M144.22,144.41a2.93,2.93,0,0,0-2.23-1,0.13,0.13,0,0,0,0,.27,3.6,3.6,0,0,1,2,.91C144.11,144.7,144.34,144.57,144.22,144.41Z" transform="translate(-47.81 -58.48)"/><path class="cls-1" d="M144.94,143.64a1.92,1.92,0,0,0-2.3-1.44,0.21,0.21,0,0,0,.12.41c0.89-.22,1.44.53,1.9,1.15A0.16,0.16,0,0,0,144.94,143.64Z" transform="translate(-47.81 -58.48)"/><path class="cls-1" d="M146,142.66a3.43,3.43,0,0,0-.93-1.07,3.34,3.34,0,0,0-1.14-.69c-0.27-.09-0.37.34-0.1,0.43a7.62,7.62,0,0,1,1.91,1.54A0.17,0.17,0,0,0,146,142.66Z" transform="translate(-47.81 -58.48)"/><path class="cls-1" d="M147.65,141.24c-0.62-.94-1.86-2-3-1.26a0.26,0.26,0,0,0,.27.44c0.93-.56,1.72.62,2.39,1.11C147.5,141.66,147.81,141.47,147.65,141.24Z" transform="translate(-47.81 -58.48)"/><path d="M156.37,138.47c-1.63-.82-3.66-0.3-5.37,0a23.16,23.16,0,0,0-4.16.88,0.34,0.34,0,0,0-.14-0.24,10.16,10.16,0,0,0-5.11-1.82c-1.59-.2-3.6-0.32-5,0.58a0.16,0.16,0,0,0,.13.3,9.83,9.83,0,0,1,1.26-.25,46.72,46.72,0,0,0-3.63,4.15,15.19,15.19,0,0,0-2.75,4.1,0.23,0.23,0,0,0,0,.09c-0.37,0-.73,0-1.1,0a2.06,2.06,0,0,0,.49-1.06,19.24,19.24,0,0,0-.1-2c0.07-1.08.84-1.16,1.48-1.69,0.89-.73,1-2.3,1-3.37a4.36,4.36,0,0,0-5-4.57c-0.25,0-.51.1-0.76,0.16a6,6,0,0,0-1.92.56,5.51,5.51,0,0,0-1.35.94c-0.21.15-.41,0.3-0.6,0.46-1.37,1.18-1.83,3-2.28,4.65a0.39,0.39,0,0,0,.14.44,22.38,22.38,0,0,1-.72,3.61h0a1.16,1.16,0,0,1-.67.71l-0.12,0,0.23,0-0.51.4a13.35,13.35,0,0,0-9.71,5.25,17.21,17.21,0,0,0-3.1,6c-0.39,1.4-.67,2.82-1,4.22s-1,3-1.28,4.59a0.38,0.38,0,0,0,.73.18c0.51-2.54,1.37-5,2-7.57a18.85,18.85,0,0,1,2.76-6.42,14,14,0,0,1,9.14-5.9c-0.55.42-1.09,0.86-1.6,1.32a6.3,6.3,0,0,0-1.32,1.07,7.46,7.46,0,0,0-1.78,4.17c-0.25,1.88-.27,3.27-1.79,4.58a1.76,1.76,0,0,0-.71,2.33c0.91,2.14,3,3.91,5.32,3a5.17,5.17,0,0,0,2.69-2.4c0.39-.82.34-1.59,0.65-2.24,0.18-.24.37-0.48,0.57-0.7a2.52,2.52,0,0,1,.32-0.22c1.07-.59,2.42-1,3-2.24a3.24,3.24,0,0,0,.18-1.54V153a13.58,13.58,0,0,1,.63-1.69,4.76,4.76,0,0,1,.71-1l0.24-.09a3.65,3.65,0,0,0,2.37-1.67c0.12-.27.09-0.6,0.2-0.86,0.55-1.21.63-.54,1.2-1.11l0.07-.07c2.76,0.24,5.5.91,7.43,3.06a11.16,11.16,0,0,1,2.34,3.84,20.88,20.88,0,0,1,.57,4.86,20,20,0,0,1-.93,7.46,1.68,1.68,0,0,1,.89.39v0a23,23,0,0,0,.71-10.3,12,12,0,0,0-1-3.86c1.53-.13,3.05-0.37,4.59-0.49a12.85,12.85,0,0,1,3.36,0,0.43,0.43,0,0,0,.72.22,2,2,0,0,1,.88.72,0.39,0.39,0,0,0,.7-0.3,1.48,1.48,0,0,0-1-1.1c1.14-1.56,1.62-3.56,2.86-5.07a20.08,20.08,0,0,0,2-2.69c0.72-1.27,1-2.67,2-3.81a0.2,0.2,0,0,0,0-.24A0.36,0.36,0,0,0,156.37,138.47Zm-2,3a13.56,13.56,0,0,1-2.48,3.76,12.2,12.2,0,0,0-1.83,2.59,16.53,16.53,0,0,1-1.59,2.86,12,12,0,0,0-2.48-.06,35.48,35.48,0,0,0-6,1,9.82,9.82,0,0,0-1.21-1.82,0.13,0.13,0,0,0,.15,0c0.14-.13.23-0.31,0.36-0.46s-0.08-.3-0.19-0.18a2,2,0,0,0-.37.53,0.09,0.09,0,0,0,0,.06,10.21,10.21,0,0,0-1.32-1.3,10.4,10.4,0,0,0-5.43-2.2,20,20,0,0,1,3.19-4.19c1.2-1.4,2.43-2.75,3.7-4.09a0.35,0.35,0,0,0,.1-0.2,11.23,11.23,0,0,1,7.11,1.84,8.29,8.29,0,0,0-1.49.9,0.14,0.14,0,0,0,.14.24c1.92-1.18,3.78-1.27,5.94-1.57,1.69-.24,3.64-0.78,5.29-0.1A5.49,5.49,0,0,0,154.41,141.51Z" transform="translate(-47.81 -58.48)"/><path d="M148.27,165.46H105.58c-0.5,0-.58.79-0.07,0.79H148.2C148.71,166.25,148.78,165.46,148.27,165.46Z" transform="translate(-47.81 -58.48)"/><text class="cls-2" transform="translate(110.77 70.22)">I <tspan x="2.14" y="0">f</tspan><tspan x="3.24" y="0">org</tspan><tspan x="8.82" y="0">o</tspan><tspan x="10.98" y="0">t </tspan><tspan x="13.04" y="0">t</tspan><tspan x="14.04" y="0">o b</tspan><tspan x="19.4" y="0">r</tspan><tspan x="20.78" y="0">ing </tspan><tspan x="0" y="4.26">t</tspan><tspan x="1.04" y="4.26">he </tspan><tspan x="6.05" y="4.26">m</tspan><tspan x="8.8" y="4.26">y la</tspan><tspan x="14.83" y="4.26">p</tspan><tspan x="16.99" y="4.26">t</tspan><tspan x="17.99" y="4.26">op.. </tspan><tspan x="0" y="8.52">whe</tspan><tspan x="6.66" y="8.52">r</tspan><tspan x="7.96" y="8.52">e do I s</tspan><tspan x="19.96" y="8.52">a</tspan><tspan x="22.12" y="8.52">v</tspan><tspan x="23.84" y="8.52">e </tspan><tspan x="0" y="12.78">t</tspan><tspan x="1.04" y="12.78">his?</tspan></text><text class="cls-2" transform="translate(163.77 70.5)">L<tspan x="1.57" y="0">e</tspan><tspan x="3.57" y="0">t me </tspan><tspan x="11.5" y="0">t</tspan><tspan x="12.5" y="0">a</tspan><tspan x="14.63" y="0">k</tspan><tspan x="16.34" y="0">e a </tspan><tspan x="0" y="4.26">pictu</tspan><tspan x="7.61" y="4.26">r</tspan><tspan x="8.91" y="4.26">e!</tspan></text><path d="M212.93,143.25a14.71,14.71,0,0,0-13.29-1.69c0,0.29,0,.58-0.08.86a13.91,13.91,0,0,1,12.93,1.47A0.39,0.39,0,0,0,212.93,143.25Z" transform="translate(-47.81 -58.48)"/><path d="M191.1,156.66H191a3.25,3.25,0,0,0-.46.11,0.54,0.54,0,0,1-.32,0l-2.62,4.52c-0.25.44,0.39,0.89,0.65,0.45l3-5.12H191.1Z" transform="translate(-47.81 -58.48)"/><path d="M232.73,142.36l-0.33-.15a0.39,0.39,0,0,0-.65-0.29,22,22,0,0,0-18.61.6,0.39,0.39,0,0,0,.33.71,21.23,21.23,0,0,1,17.86-.64,97.13,97.13,0,0,0-7.85,16.55,23.08,23.08,0,0,0-15.17,2.26l-0.1-.07a20.87,20.87,0,0,0-21.32,1.84c-0.41.3,0.1,0.9,0.51,0.6a20.1,20.1,0,0,1,20.08-1.91l-0.35.2c-0.43.26-.1,1,0.33,0.71a22.36,22.36,0,0,1,15.73-2.88l-0.19.51a0.39,0.39,0,0,0,.74.27l0.22-.62c0.63,0.14,1.26.3,1.88,0.5a0.39,0.39,0,0,0,.27-0.74c-0.62-.2-1.25-0.36-1.88-0.5a96.1,96.1,0,0,1,7.79-16.39l0.4,0.18C232.92,143.33,233.18,142.58,232.73,142.36Z" transform="translate(-47.81 -58.48)"/><path d="M203.81,156.89l-2.16-1c-0.46-.22-0.72.52-0.27,0.74l2.16,1C204,157.85,204.27,157.11,203.81,156.89Z" transform="translate(-47.81 -58.48)"/><path d="M206.18,157.85c-0.5,0-.58.79-0.07,0.79S206.68,157.85,206.18,157.85Z" transform="translate(-47.81 -58.48)"/><path d="M206.57,154.13l-1.6-1.26c-0.4-.31-0.85.34-0.45,0.65l1.6,1.26C206.52,155.09,207,154.44,206.57,154.13Z" transform="translate(-47.81 -58.48)"/><path d="M200.81,148.37c-0.5,0-.58.79-0.07,0.79S201.31,148.37,200.81,148.37Z" transform="translate(-47.81 -58.48)"/><path d="M209,149.46l-2.15-1.07c-0.45-.23-0.72.52-0.27,0.74l2.15,1.07C209.14,150.43,209.41,149.69,209,149.46Z" transform="translate(-47.81 -58.48)"/><path d="M202.85,145.51l-1.25.36a0.41,0.41,0,0,0-.32.46,0.4,0.4,0,0,0,.46.32l1.25-.36a0.41,0.41,0,0,0,.32-0.46A0.4,0.4,0,0,0,202.85,145.51Z" transform="translate(-47.81 -58.48)"/><path d="M209.39,145.95a4,4,0,0,0-3.15-.65,0.39,0.39,0,0,0,.13.78,3.24,3.24,0,0,1,2.57.53A0.39,0.39,0,0,0,209.39,145.95Z" transform="translate(-47.81 -58.48)"/><path d="M218.87,145.36a3,3,0,0,0-3,1.33,0.39,0.39,0,0,0,.65.45,2.18,2.18,0,0,1,2.23-1C219.3,146.23,219.37,145.45,218.87,145.36Z" transform="translate(-47.81 -58.48)"/><path d="M225,145.29l-1.25-.18a0.39,0.39,0,0,0-.07.79l1.25,0.18A0.39,0.39,0,0,0,225,145.29Z" transform="translate(-47.81 -58.48)"/><path d="M217.7,151.06l-2.51.36a0.39,0.39,0,0,0,.13.78l2.51-.36A0.39,0.39,0,0,0,217.7,151.06Z" transform="translate(-47.81 -58.48)"/><path d="M222.75,151.54l-1.43-.35c-0.49-.12-0.76.62-0.27,0.74l1.43,0.35C223,152.4,223.25,151.66,222.75,151.54Z" transform="translate(-47.81 -58.48)"/><path d="M214.74,155.92l-1.79.72c-0.47.19-.14,0.9,0.33,0.71l1.79-.72C215.55,156.44,215.21,155.73,214.74,155.92Z" transform="translate(-47.81 -58.48)"/><path d="M219.41,156.27L218,156.1a0.39,0.39,0,0,0-.07.79l1.43,0.18A0.39,0.39,0,0,0,219.41,156.27Z" transform="translate(-47.81 -58.48)"/><path d="M216,153.23l-2.51.89c-0.48.17-.14,0.88,0.33,0.71l2.51-.89C216.81,153.78,216.47,153.06,216,153.23Z" transform="translate(-47.81 -58.48)"/><path d="M219.42,152.84c-0.5,0-.58.79-0.07,0.79S219.92,152.84,219.42,152.84Z" transform="translate(-47.81 -58.48)"/><path d="M218.34,148H218a0.41,0.41,0,0,0-.43.36,0.4,0.4,0,0,0,.36.43h0.36a0.41,0.41,0,0,0,.43-0.36A0.4,0.4,0,0,0,218.34,148Z" transform="translate(-47.81 -58.48)"/><path d="M223.89,148c-0.5,0-.58.79-0.07,0.79S224.4,148,223.89,148Z" transform="translate(-47.81 -58.48)"/><path d="M200.44,150.39l-0.45.08,0.59-11.06a0.37,0.37,0,0,0,0-.1c0.46-.08.44-0.81-0.05-0.78l-9.44.68a0.43,0.43,0,0,0-.62.33l-1.58,17.11-0.25,0c-0.5.07-.49,0.86,0,0.79l0.5-.07a0.46,0.46,0,0,0,.24,0l10-1.37a0.41,0.41,0,0,0,.39-0.4l0.23-4.34,0.7-.13C201.15,151.06,200.93,150.3,200.44,150.39Zm-1.49,4.89-9.28,1.28,0.34-3.73a0.4,0.4,0,0,0,.4.16l2.23-.4,0.18,0,6.33-1.14Zm0.85-15.85-0.6,11.19-9,1.62a0.37,0.37,0,0,0-.14.06L191.19,140l8.61-.62A0.37,0.37,0,0,0,199.79,139.42Z" transform="translate(-47.81 -58.48)"/><path d="M194.58,154.89l0.11,0a0.54,0.54,0,0,0,.14-0.09,0.78,0.78,0,1,0-1.3-.54,0.39,0.39,0,0,0,.57.33,0.82,0.82,0,0,0,.25.28A0.3,0.3,0,0,0,194.58,154.89Z" transform="translate(-47.81 -58.48)"/><path d="M290.11,167.38a0.39,0.39,0,0,0-.78.13l1.1,7.32a0.39,0.39,0,0,0,.78-0.13Z" transform="translate(-47.81 -58.48)"/><path d="M295.14,168.44c0-.51-0.8-0.37-0.78.13l0.21,5.39c0,0.51.8,0.37,0.78-.13Z" transform="translate(-47.81 -58.48)"/><path d="M301.15,168.66c-0.05-.51-0.83-0.37-0.78.13l0.44,4.31c0.05,0.51.83,0.37,0.78-.13Z" transform="translate(-47.81 -58.48)"/><path d="M304.86,168.22c0-.51-0.8-0.37-0.78.13l0.22,4.31c0,0.51.8,0.37,0.78-.13Z" transform="translate(-47.81 -58.48)"/><path d="M335.84,153a0.32,0.32,0,0,0-.12-0.14,14.42,14.42,0,0,0-3.39-12c-3.44-3.84-9-4.47-12.52-8.12a0.39,0.39,0,0,0-.27-0.12,5.73,5.73,0,0,0,2.36-2.52,2.81,2.81,0,0,0,2.28.14c3-1.33,2.38-6.06.78-8.08a8.37,8.37,0,0,0-9.77-2.19,5.24,5.24,0,0,0-3,3.5,3.62,3.62,0,0,0-.18.7,0.4,0.4,0,0,0,0,.17,8,8,0,0,0,.79,4.43h0a1,1,0,0,0,1.35.93,7.17,7.17,0,0,0,.84,1.69,0.38,0.38,0,0,0,0,.06c-0.91,5.08-7.94,5.17-11.61,7.32a18.65,18.65,0,0,0-7.24,7.84,15.46,15.46,0,0,0-7-.87,10.65,10.65,0,0,1,.53-1.49c0.25-.35.52-0.7,0.8-1A2.1,2.1,0,0,0,291,142l0,0a3.4,3.4,0,0,0,4,1.07,8.89,8.89,0,0,0,5.38-7.79,5.06,5.06,0,0,0-.59-2.21,0.35,0.35,0,0,0,.1-0.45,6.65,6.65,0,0,0-6.47-3.68,0.34,0.34,0,0,0-.17.06l-0.34,0a1.26,1.26,0,0,0-.78.23,5.12,5.12,0,0,0-2.43.77c-2.06,1.27-3,3.68-3.79,5.85a19,19,0,0,1-2,4.47c-1,1-2,1.92-3,2.8-0.48.32-1,.61-1.47,0.89-2.35,1.34-4.83,2.47-6.72,4.46a7.25,7.25,0,0,0-2.24,5.61c0.23,2.52,1.92,4.63,2.41,7.06a10.52,10.52,0,0,1-.29,2.79,19,19,0,0,0-1.39,3.56,1.92,1.92,0,0,0,.26,1.79,2.59,2.59,0,0,0,.13.23,2.09,2.09,0,0,0,.69.64,10.25,10.25,0,0,0,8.28,2.83,6.2,6.2,0,0,0,5.09-3.68,5.71,5.71,0,0,0,1-1.48,4.57,4.57,0,0,0,.27-3.15h19.29v7.33c0,0.5.79,0.58,0.79,0.07v-7.33a0.39,0.39,0,0,0,0-.07h0a4.45,4.45,0,0,1,.05-0.79h-1.18a0.39,0.39,0,0,0,.1-0.2,15.35,15.35,0,0,0-2-10.43l2.26,0.07a0.32,0.32,0,0,0,.28,0l1.19,0a0.32,0.32,0,0,0,.34.31h26.54l-8.72,8.3a0.38,0.38,0,0,0-.11.18H306.88c-0.5,0-.58.79-0.07,0.79h19.82a0.41,0.41,0,0,0,.21-0.76l9-8.54A0.4,0.4,0,0,0,335.84,153Zm-21.08-24.12a10.57,10.57,0,0,1-.61-3.65,7.08,7.08,0,0,1,1.57-2.87l0-.06c0.32,1,1.54,1.21,2.61,1s1.72-.76,2.88.64c0.24,0.29.35,0.7,0.61,1a2,2,0,0,0,.44.34l-0.08.09c-0.82,1.18-2.22,2.51-1.24,4a2,2,0,0,0,.29.34,5.17,5.17,0,0,1-2.22,2.25C316.75,133,315.38,130.62,314.75,128.88ZM299,133.36a5,5,0,0,1,.46,3c-0.35,2.26-2.47,5.23-4.74,5.92-1.65.5-2.67,0-3.23-.91l0.44-.46a1.19,1.19,0,0,0,.35-0.63A62.17,62.17,0,0,1,299,133.36Zm6.19,30.17a0.34,0.34,0,0,0,.07.28H286.72l-0.13-.38c-0.46-1.29-1-2.58-.4-3.79a12.3,12.3,0,0,1,.82-1l0.21-.24a8.31,8.31,0,0,0,1.37-1.26,2.56,2.56,0,0,0,.4-2.55,10.06,10.06,0,0,0-.1-4.19,10.94,10.94,0,0,1,0-3.91,14.63,14.63,0,0,1,13.89,6.2,0.35,0.35,0,0,0,.26.4A14.68,14.68,0,0,1,305.23,163.53Zm29.7-10.71H309.19c0-.09.09-0.18,0.14-0.26l-2.27-.07,0.07-.12a4.53,4.53,0,0,1-.78-0.22l-0.18.31-2.67-.09a15.61,15.61,0,0,0-6.68-5.49,18.27,18.27,0,0,1,11.3-9.29c3.08-1,6.53-2.16,7.47-5.5a3.24,3.24,0,0,0,2.47.9,3.7,3.7,0,0,0,1.12-.24,0.34,0.34,0,0,0,0,.49c3.07,3.15,7.53,4,10.93,6.62A13.57,13.57,0,0,1,334.93,152.82Z" transform="translate(-47.81 -58.48)"/><path d="M337.27,162.27l-0.74-8c0-.51-0.82-0.37-0.78.13l0.73,7.87a0.37,0.37,0,0,0-.36.34A9.25,9.25,0,0,1,331,170c-2,1-4.13.92-5,3.27-0.69,1.82-1,3.26-3.13,3.77-1.56.37-3.2,0.51-4.79,0.74l-10.44,1.56a0.39,0.39,0,0,0,.13.78l11.93-1.79c2.55-.38,5.5-0.39,6.53-3.18a6.27,6.27,0,0,1,1.24-2.58,5.64,5.64,0,0,1,2.82-1.44,9.84,9.84,0,0,0,3.19-1.82,10.1,10.1,0,0,0,3.43-6.62A0.41,0.41,0,0,0,337.27,162.27Z" transform="translate(-47.81 -58.48)"/><text class="cls-2" transform="translate(199.87 70.08)">H<tspan x="2.6" y="0">e</tspan><tspan x="4.51" y="0">y Bob! </tspan><tspan x="16.16" y="0">y</tspan><tspan x="18.02" y="0">ou </tspan><tspan x="0" y="4.26">kn</tspan><tspan x="3.71" y="4.26">o</tspan><tspan class="cls-3" x="5.78" y="4.26">w  I </tspan><tspan x="12.86" y="4.26">w</tspan><tspan x="15.55" y="4.26">an</tspan><tspan x="19.62" y="4.26">t</tspan><tspan x="20.62" y="4.26">ed </tspan><tspan x="25.81" y="4.26">t</tspan><tspan x="26.8" y="4.26">o </tspan><tspan x="0" y="8.52">sha</tspan><tspan x="5.51" y="8.52">r</tspan><tspan x="6.82" y="8.52">e Berge</tspan><tspan x="19.35" y="8.52">r</tspan><tspan x="20.78" y="8.52">’s </tspan><tspan x="0" y="12.78">q</tspan><tspan x="2.17" y="12.78">u</tspan><tspan x="4.1" y="12.78">o</tspan><tspan x="6.26" y="12.78">t</tspan><tspan x="7.26" y="12.78">e wi</tspan><tspan x="13.95" y="12.78">t</tspan><tspan x="14.99" y="12.78">h </tspan><tspan x="18.03" y="12.78">y</tspan><tspan x="19.89" y="12.78">ou. </tspan><tspan x="0" y="17.04">Y</tspan><tspan x="1.89" y="17.04">ou a</tspan><tspan x="9.18" y="17.04">r</tspan><tspan x="10.48" y="17.04">e going </tspan><tspan x="23.85" y="17.04">t</tspan><tspan x="24.84" y="17.04">o </tspan><tspan x="0" y="21.29">li</tspan><tspan x="1.77" y="21.29">k</tspan><tspan x="3.48" y="21.29">e </tspan><tspan x="6.54" y="21.29">t</tspan><tspan x="7.58" y="21.29">his.</tspan></text><text class="cls-2" transform="translate(200.82 98.94)">Damn! L<tspan x="13.3" y="0">e</tspan><tspan x="15.3" y="0">t me </tspan><tspan x="0" y="4.26">sea</tspan><tspan x="5.53" y="4.26">r</tspan><tspan x="6.83" y="4.26">c</tspan><tspan x="8.61" y="4.26">h.. w</tspan><tspan x="16.59" y="4.26">h</tspan><tspan x="18.48" y="4.26">y </tspan><tspan x="0" y="8.52">can</tspan><tspan x="5.77" y="8.52">’</tspan><tspan x="6.94" y="8.52">t I </tspan><tspan x="11.15" y="8.52">f</tspan><tspan x="12.27" y="8.52">ind it </tspan><tspan x="0" y="12.78">in </tspan><tspan x="3.93" y="12.78">m</tspan><tspan x="6.68" y="12.78">y phone?</tspan></text></svg>